<svg width="100%" height="100%" viewBox="0 0 32 34" fill="none" xmlns="http://www.w3.org/2000/svg">
<path d="M12.4886 23.3267C12.6904 23.4279 12.9328 23.3551 13.0526 23.1575C13.1119 23.0596 13.178 22.9665 13.2492 22.8806C13.5251 22.548 14.4505 21.732 14.7276 21.4897C14.8207 21.4083 14.8549 21.2784 14.8148 21.1589L14.6349 20.6225C14.6157 20.5655 14.629 20.5032 14.6696 20.46L14.9894 20.1189C15.013 20.0937 15.0494 20.0871 15.0799 20.1023L15.1171 20.1211C15.1884 20.1568 15.2743 20.1257 15.3087 20.0518L15.3448 19.9742C15.3947 19.8671 15.3555 19.7375 15.2558 19.6792L14.3524 19.1509C14.3468 19.1477 14.3411 19.1446 14.3354 19.1419C14.2143 19.0828 14.0652 19.0916 13.9448 19.0312L13.8401 18.9786C13.7689 18.9429 13.6829 18.974 13.6485 19.0479L12.5854 21.3316C12.27 22.0091 12.15 22.61 12.113 22.8369C12.1029 22.8991 12.1183 22.9632 12.1552 23.0128L12.3185 23.2327C12.3253 23.2418 12.3338 23.2488 12.3433 23.2535L12.4886 23.3267ZM13.1441 22.7866C13.0684 22.8779 12.9981 22.9768 12.9351 23.0809C12.9314 23.0868 12.9228 23.0835 12.9239 23.0763C12.9267 23.0561 12.9303 23.0343 12.9343 23.0106C12.9595 22.8635 13.014 22.6162 13.1307 22.2743C13.1508 22.2154 13.1533 22.1528 13.1378 22.0934L13.1066 21.9731C13.104 21.9632 13.1072 21.9527 13.1123 21.9436C13.1141 21.9403 13.1159 21.937 13.1177 21.9337C13.2098 21.7699 13.4494 21.8274 13.4657 22.0155C13.4687 22.051 13.4621 22.0866 13.4476 22.119C13.4221 22.176 13.4012 22.2288 13.3851 22.2778C13.3278 22.4511 13.2681 22.6391 13.1513 22.7779C13.1488 22.7808 13.1464 22.7837 13.1441 22.7866ZM13.7847 20.8772C13.7833 20.8614 13.7878 20.8449 13.7965 20.8315C13.8325 20.7767 13.9152 20.7993 13.9209 20.8651L13.9513 21.2164C13.9546 21.2552 13.9444 21.2935 13.9226 21.3244C13.8925 21.3672 13.8255 21.3491 13.8209 21.2968L13.7847 20.8772ZM13.7093 21.6178C13.7107 21.6327 13.7065 21.6485 13.6985 21.6611C13.6638 21.7169 13.5774 21.6955 13.5716 21.63L13.5396 21.2578C13.5381 21.2424 13.5422 21.2263 13.5505 21.2131C13.5862 21.1567 13.6714 21.1787 13.6772 21.2455L13.7093 21.6178ZM15.1877 19.8048C15.2237 19.8259 15.238 19.8727 15.2199 19.9114L15.1837 19.989C15.1826 19.9915 15.1799 19.9925 15.1775 19.9913L15.1404 19.9725C15.0559 19.9303 14.9553 19.9486 14.8899 20.0184L14.5702 20.3594C14.4927 20.442 14.4673 20.5611 14.5038 20.6699L14.6837 21.2063C14.7047 21.269 14.6869 21.337 14.6383 21.3794C14.6038 21.4095 14.5503 21.3961 14.5338 21.3528L14.5294 21.3411C14.5153 21.3042 14.4749 21.2861 14.4393 21.3007C14.4225 21.3075 14.4097 21.3207 14.4024 21.3363C14.3942 21.3539 14.3929 21.3747 14.4003 21.3942L14.4402 21.4987C14.4496 21.5232 14.4437 21.5504 14.4241 21.5677C14.3919 21.5962 14.3408 21.5844 14.3254 21.5441L14.3247 21.5422C14.3106 21.5053 14.2703 21.4872 14.2347 21.5018C14.2179 21.5086 14.2051 21.5216 14.1978 21.5375C14.1896 21.555 14.1883 21.5758 14.1957 21.5954L14.2301 21.6856C14.2395 21.7101 14.2328 21.738 14.2134 21.7553C14.2101 21.7581 14.2069 21.7612 14.2036 21.7641C14.1762 21.7884 14.1333 21.7779 14.1201 21.7435C14.106 21.7064 14.0657 21.6883 14.03 21.7029C14.0131 21.7097 14.0004 21.7227 13.993 21.7386C13.9849 21.7561 13.9836 21.7769 13.991 21.7963L14.0208 21.8746C14.03 21.8989 14.0235 21.9265 14.0044 21.9438C13.998 21.9498 13.9915 21.9556 13.9851 21.9615C13.9624 21.9821 13.9264 21.9733 13.9154 21.9444C13.9013 21.9075 13.861 21.8894 13.8253 21.904C13.8085 21.911 13.7957 21.924 13.7884 21.9397C13.7803 21.9572 13.7789 21.978 13.7864 21.9976L13.7975 22.0268C13.8157 22.0744 13.801 22.1305 13.7639 22.1649C13.6769 22.2461 13.5727 22.1748 13.627 22.0681C13.7215 21.8828 13.8595 21.6588 14.0349 21.4093C14.0765 21.3501 14.096 21.277 14.0896 21.2034L14.0444 20.6809C14.0334 20.5543 14.066 20.4278 14.1375 20.3237C14.1497 20.306 14.1614 20.289 14.1725 20.2729C14.2485 20.1626 14.3669 20.0935 14.4831 20.0291C14.5413 19.9968 14.5955 19.9564 14.6439 19.9084L14.6835 19.8692C14.8185 19.7355 15.0243 19.7091 15.1877 19.8048ZM14.285 19.2767L14.4984 19.4015C14.6421 19.4857 14.667 19.6864 14.548 19.8042C14.4456 19.9056 14.3113 19.9661 14.17 19.9745C13.9905 19.9851 13.8654 19.7962 13.9424 19.6308L14.0745 19.3471C14.0929 19.3075 14.1253 19.2784 14.1656 19.265C14.2059 19.2516 14.2485 19.2559 14.285 19.2767ZM12.2651 22.9247C12.2518 22.9069 12.2461 22.8837 12.2499 22.861C12.2779 22.6887 12.3941 22.0738 12.7103 21.3945L13.7735 19.1107C13.7746 19.1082 13.7773 19.1072 13.7797 19.1084L13.9796 19.2088C13.982 19.2099 13.9829 19.2128 13.9818 19.2152L13.5951 20.0456C13.4512 20.3548 13.3121 20.6092 13.1774 20.8552C13.0417 21.1031 12.9013 21.3594 12.7554 21.673C12.5298 22.1575 12.4105 22.622 12.3525 22.9043C12.3439 22.9463 12.2905 22.9589 12.2651 22.9247ZM12.5491 23.1969C12.4901 23.1672 12.4567 23.1019 12.4689 23.0361C12.5159 22.7829 12.6331 22.2667 12.8803 21.7357C12.8849 21.7258 12.8992 21.7272 12.9019 21.7377L13.0038 22.1309C13.0117 22.1614 13.0103 22.1952 12.9998 22.2261C12.8846 22.564 12.8267 22.8152 12.7976 22.9846C12.7741 23.1217 12.6716 23.2583 12.5491 23.1969Z" fill="white"/>
<path d="M20.2119 12.0042C20.2974 12.2494 20.1915 12.5216 19.9654 12.6374C19.8535 12.6948 19.7458 12.7606 19.6454 12.8331C19.2566 13.114 18.2736 14.0911 17.9817 14.3839C17.8836 14.4822 17.7404 14.5068 17.6166 14.4466L17.0615 14.1766C17.0025 14.1478 16.9339 14.1561 16.8828 14.1981L16.4798 14.5289C16.4501 14.5533 16.4387 14.5947 16.4517 14.6318L16.4674 14.677C16.4976 14.7635 16.4543 14.8594 16.371 14.8908L16.2834 14.9236C16.1628 14.969 16.0281 14.9088 15.977 14.7865L15.5139 13.6802C15.5062 13.6614 15.5002 13.6421 15.4959 13.6227C15.4678 13.4941 15.4878 13.3537 15.4446 13.2296L15.388 13.0673C15.3578 12.9808 15.401 12.8849 15.4844 12.8536L18.0589 11.8864C18.8227 11.5994 19.4816 11.5297 19.7294 11.5131C19.7973 11.5085 19.8644 11.5336 19.9134 11.5821L20.1308 11.7966C20.1397 11.8054 20.1461 11.8161 20.1502 11.8276L20.2119 12.0042ZM19.5565 12.7006C19.6632 12.6234 19.7777 12.5535 19.8965 12.4926C19.9038 12.4889 19.9008 12.4787 19.8927 12.4791C19.8709 12.4802 19.8471 12.4816 19.8213 12.4836C19.6604 12.4958 19.3886 12.5304 19.0081 12.626C18.9425 12.6425 18.875 12.6382 18.8131 12.6135L18.6877 12.5636C18.6772 12.5594 18.6655 12.5618 18.6552 12.5666C18.6487 12.5697 18.6422 12.5728 18.6356 12.5758C18.4469 12.6647 18.4837 12.9419 18.6877 12.9832C18.728 12.9913 18.7698 12.9874 18.8085 12.9736C18.8784 12.9487 18.9424 12.9297 19.0007 12.9167C19.1816 12.8761 19.3783 12.834 19.5273 12.7221C19.5373 12.7146 19.5472 12.7074 19.5565 12.7006ZM17.4348 13.2224C17.4166 13.2187 17.397 13.2222 17.3807 13.2313C17.3168 13.2671 17.3327 13.3638 17.4043 13.3784L17.7778 13.4539C17.8189 13.4622 17.8612 13.4549 17.897 13.4332C17.9477 13.4026 17.935 13.3236 17.8772 13.312L17.4348 13.2224ZM18.2347 13.2197C18.2518 13.2232 18.2706 13.22 18.286 13.2118C18.3509 13.1774 18.337 13.0767 18.2652 13.0621L17.8717 12.9825C17.8538 12.9789 17.8349 12.9818 17.8188 12.9905C17.753 13.0259 17.7679 13.1252 17.8409 13.1401L18.2347 13.2197ZM16.1196 14.7222C16.1381 14.7664 16.1868 14.7882 16.2305 14.7718L16.318 14.7389C16.3207 14.7379 16.3221 14.7348 16.3211 14.732L16.3053 14.6867C16.2696 14.5841 16.3009 14.4698 16.3833 14.4022L16.7863 14.0714C16.884 13.9913 17.0147 13.9755 17.1275 14.0304L17.6826 14.3004C17.7474 14.3319 17.8224 14.3191 17.8736 14.2677C17.9105 14.2307 17.9016 14.1679 17.8558 14.1431L17.8451 14.1374C17.807 14.1167 17.7922 14.068 17.812 14.0284C17.8214 14.0098 17.8368 13.9965 17.8546 13.9898C17.8742 13.9824 17.8968 13.9832 17.9169 13.9941L18.0218 14.0508C18.0486 14.0653 18.0805 14.0614 18.1022 14.0399C18.1361 14.0062 18.1292 13.9477 18.0873 13.9251L18.0847 13.9236C18.0465 13.9031 18.0317 13.8543 18.0515 13.8148C18.0609 13.796 18.0764 13.7828 18.0941 13.7761C18.1138 13.7687 18.1363 13.7696 18.1564 13.7804L18.2468 13.8292C18.2734 13.8436 18.3061 13.839 18.3279 13.8177C18.3311 13.8145 18.3343 13.8113 18.3375 13.8081C18.367 13.7793 18.3602 13.7296 18.3241 13.71C18.2861 13.6893 18.2712 13.6406 18.291 13.601C18.3004 13.5824 18.3158 13.5691 18.3335 13.5625C18.3533 13.555 18.3759 13.5558 18.3959 13.5667L18.4737 13.6088C18.5002 13.623 18.5327 13.6185 18.5544 13.5976C18.5611 13.5911 18.5678 13.5847 18.5745 13.5782C18.5994 13.5543 18.5938 13.5126 18.5636 13.4963C18.5256 13.4757 18.5107 13.4269 18.5306 13.3874C18.5399 13.3686 18.5554 13.3554 18.5731 13.3487C18.5928 13.3414 18.6153 13.3422 18.6355 13.353L18.6604 13.3666C18.7122 13.3945 18.7782 13.3836 18.8213 13.343C18.919 13.251 18.851 13.1259 18.728 13.1775C18.5185 13.2653 18.2626 13.3991 17.9753 13.5728C17.9068 13.6142 17.8262 13.6283 17.7481 13.6125L17.1801 13.4975C17.0535 13.472 16.922 13.4935 16.8104 13.5593C16.7768 13.5789 16.7459 13.5973 16.7173 13.6142C16.6043 13.6813 16.5262 13.7929 16.458 13.9065C16.4137 13.9805 16.3584 14.0475 16.2936 14.1048L16.2505 14.143C16.0881 14.2867 16.0353 14.5207 16.1196 14.7222ZM15.6568 13.6166L15.7681 13.8824C15.8398 14.0537 16.0548 14.104 16.1927 13.9819C16.3135 13.875 16.3939 13.7265 16.4192 13.5639C16.4511 13.3586 16.2541 13.1942 16.0625 13.2662L15.7565 13.3812C15.7119 13.3979 15.677 13.4319 15.6579 13.4771C15.639 13.5222 15.6386 13.572 15.6568 13.6166ZM19.8063 11.6992C19.7885 11.6817 19.7641 11.6725 19.7394 11.6742C19.5513 11.6869 18.8777 11.7505 18.1117 12.0382L15.5374 13.0055C15.5346 13.0065 15.5333 13.0096 15.5343 13.0124L15.6191 13.2556C15.62 13.2583 15.623 13.2596 15.6256 13.2586L16.5618 12.9069C16.9103 12.7759 17.1994 12.6441 17.4789 12.5167C17.7608 12.3881 18.0523 12.2552 18.4058 12.1224C18.9509 11.9176 19.4624 11.833 19.7723 11.7982C19.8199 11.7929 19.8407 11.7331 19.8063 11.6992ZM20.0656 12.0593C20.0407 11.9878 19.9725 11.9415 19.8982 11.9483C19.6194 11.9739 19.0544 12.0504 18.4587 12.2743C18.4473 12.2786 18.4472 12.295 18.4585 12.2995L18.8688 12.4627C18.9007 12.4755 18.9371 12.4777 18.9715 12.469C19.3412 12.3761 19.6145 12.3379 19.7996 12.3232C19.9544 12.3109 20.1176 12.2083 20.0656 12.0593Z" fill="white"/>
<path d="M27.2929 22.2278L30.5257 22.4441C30.9433 22.4719 31.2715 22.8167 31.2318 23.4332C31.2004 23.9179 30.5786 24.2661 30.1421 24.1349L27.1524 23.0034C26.9741 22.9319 26.8476 22.7858 26.8616 22.5686C26.8757 22.3516 27.0842 22.2137 27.2929 22.2278Z" fill="white"/>
<path d="M4.62067 22.2278L1.38798 22.4441C0.970262 22.4719 0.642073 22.8167 0.681905 23.4332C0.713271 23.9179 1.33508 24.2661 1.77145 24.1349L4.76113 23.0034C4.93954 22.9319 5.06611 22.7858 5.05211 22.5686C5.038 22.3516 4.82945 22.2137 4.62067 22.2278Z" fill="white"/>
<path d="M15.736 17.5566C15.736 17.4608 15.8107 17.3848 15.9004 17.3848C15.9903 17.3848 16.0649 17.4608 16.0649 17.5566C16.0649 17.6524 15.9903 17.7283 15.9004 17.7283C15.8107 17.7283 15.736 17.6524 15.736 17.5566Z" fill="white"/>
<path d="M1.21754 17.7059C1.21754 17.5587 1.33497 17.4391 1.47968 17.4391C1.62439 17.4391 1.74181 17.5587 1.74181 17.7059C1.74181 17.8532 1.62439 17.9727 1.47968 17.9727C1.33497 17.9727 1.21754 17.8532 1.21754 17.7059Z" fill="white"/>
<path d="M30.2106 17.7059C30.2106 17.5587 30.328 17.4391 30.4727 17.4391C30.6172 17.4391 30.7348 17.5587 30.7348 17.7059C30.7348 17.8532 30.6172 17.9727 30.4727 17.9727C30.328 17.9727 30.2106 17.8532 30.2106 17.7059Z" fill="white"/>
<path d="M9.40344 26.4229C9.68785 26.3156 10.0186 26.3896 10.1241 26.6653C10.2296 26.9408 10.1687 27.1462 9.94147 27.3148L6.46094 29.9276C5.94652 30.2643 5.02202 30.0399 4.79542 29.4479C4.56889 28.8561 4.80097 28.164 5.31583 27.969L9.40344 26.4229Z" fill="white"/>
<path d="M15.9433 27.2C16.3373 27.2 16.6647 27.5402 16.6976 27.9756L17.4093 31.9606C17.4437 32.1059 17.4613 32.2559 17.4617 32.4065C17.4617 33.3466 16.7831 34 15.9433 34C15.1036 34 14.4253 33.3466 14.4253 32.4065C14.426 32.2812 14.4387 32.1566 14.4631 32.0348L15.2032 27.8658C15.2444 27.6746 15.3398 27.505 15.474 27.3842C15.6082 27.2637 15.7735 27.1988 15.9433 27.2Z" fill="white"/>
<path d="M22.3749 26.4885L26.1215 29.0659C26.6055 29.3989 26.7593 30.0352 26.2786 30.7222C25.9006 31.2625 24.9063 31.2194 24.4721 30.7531L21.6611 27.2878C21.4959 27.0766 21.4461 26.8157 21.6154 26.5738C21.7846 26.3319 22.133 26.3218 22.3749 26.4885Z" fill="white"/>
<path d="M2.80354 13.9536C2.77692 14.0458 2.68143 14.098 2.59129 14.0696L0.126033 13.2948C0.0326132 13.2655 -0.0202858 13.1651 0.0073115 13.0696L0.361305 11.8449C0.447914 11.5453 0.595583 11.3321 0.804302 11.2054C1.01387 11.0758 1.25248 11.0531 1.52012 11.1372C1.70043 11.1939 1.83351 11.2757 1.91932 11.3828C2.00602 11.487 2.06181 11.6023 2.08673 11.7287C2.09299 11.7641 2.09811 11.7992 2.10212 11.8339C2.11649 11.959 2.23558 12.0538 2.35402 12.0176L3.16469 11.7702C3.29208 11.7313 3.41107 11.8517 3.37352 11.9816C3.35728 12.0379 3.3138 12.0817 3.25842 12.0976L2.16517 12.4124C2.10608 12.4294 2.05971 12.4761 2.04238 12.5361L1.82703 13.281C1.79944 13.3765 1.85236 13.4768 1.94576 13.5062L2.69113 13.7404C2.77959 13.7682 2.82967 13.8632 2.80354 13.9536ZM1.30418 13.3046C1.39937 13.3345 1.50022 13.2794 1.52834 13.182L1.76892 12.3498C1.79948 12.244 1.81497 12.132 1.81539 12.0136C1.81582 11.895 1.78722 11.7867 1.72956 11.6885C1.66993 11.5864 1.56828 11.5129 1.42459 11.4676C1.24711 11.4119 1.08939 11.4313 0.951452 11.5257C0.810699 11.6193 0.710174 11.7703 0.649885 11.9789L0.402886 12.8334C0.375288 12.9289 0.428183 13.0293 0.521607 13.0586L1.30418 13.3046Z" fill="white"/>
<path d="M5.4712 8.24438C5.33235 8.42324 5.17579 8.56153 5.00154 8.6592C4.82731 8.75688 4.64478 8.81402 4.45397 8.8306C4.26502 8.8448 4.07858 8.82164 3.89463 8.76112C3.7084 8.69868 3.53522 8.5999 3.37512 8.46476C3.21273 8.32769 3.084 8.17166 2.98892 7.99668C2.89382 7.82169 2.83325 7.63634 2.80722 7.44068C2.78303 7.24264 2.7986 7.04457 2.85392 6.84651C2.90922 6.64846 3.00631 6.46 3.14516 6.28114C3.284 6.10226 3.44056 5.96399 3.61479 5.86632C3.78904 5.76865 3.97065 5.7127 4.15959 5.6985C4.3504 5.6819 4.53777 5.70386 4.72172 5.76438C4.90567 5.8249 5.07885 5.92369 5.24122 6.06076C5.40132 6.19589 5.53006 6.35192 5.62743 6.52885C5.72251 6.70383 5.78217 6.89036 5.80634 7.0884C5.83239 7.28408 5.81776 7.48093 5.76243 7.67899C5.70713 7.87706 5.61004 8.06552 5.4712 8.24438ZM5.22075 8.03301C5.37071 7.83982 5.45933 7.6403 5.48666 7.4344C5.51356 7.2242 5.48709 7.02421 5.40725 6.83445C5.32696 6.64039 5.20221 6.47191 5.03296 6.32907C4.86142 6.18427 4.67741 6.09214 4.48095 6.05262C4.28631 6.01073 4.09437 6.02635 3.9051 6.0995C3.71538 6.16834 3.54556 6.29934 3.3956 6.49252C3.2475 6.68331 3.15999 6.88381 3.13311 7.09401C3.10392 7.30229 3.12833 7.5025 3.20633 7.69463C3.28617 7.88439 3.41186 8.05167 3.5834 8.19645C3.75263 8.33931 3.93573 8.43264 4.13263 8.47647C4.32911 8.51597 4.52312 8.50012 4.71468 8.42891C4.90395 8.35576 5.07265 8.2238 5.22075 8.03301Z" fill="white"/>
<path d="M9.51273 4.67535C9.25744 4.82167 9.00511 4.88755 8.75562 4.87296C8.50471 4.8557 8.27446 4.77236 8.06477 4.62297C7.85764 4.47209 7.68744 4.27028 7.5542 4.01752C7.42096 3.76479 7.34877 3.5068 7.33762 3.2436C7.32904 2.97892 7.3857 2.73286 7.50756 2.50545C7.62802 2.27534 7.81588 2.08713 8.07118 1.9408C8.26457 1.82994 8.45781 1.76648 8.65072 1.75039C8.8423 1.73162 9.02485 1.75304 9.19837 1.81465C9.29997 1.85074 9.39595 1.89905 9.48629 1.95964C9.58279 2.0243 9.56672 2.16547 9.46609 2.22317C9.40453 2.25842 9.32884 2.25014 9.26961 2.21109C9.14299 2.12764 9.00376 2.07913 8.85214 2.06561C8.66189 2.04861 8.46102 2.10073 8.24959 2.22191C8.04329 2.34017 7.89218 2.48981 7.79622 2.67086C7.70145 2.84774 7.65918 3.03828 7.66944 3.24247C7.67971 3.44665 7.73799 3.64958 7.8443 3.85125C7.94918 4.05022 8.08226 4.21029 8.24349 4.33144C8.40333 4.44992 8.58094 4.51617 8.77635 4.53018C8.97293 4.54005 9.17443 4.48586 9.38066 4.36762C9.59218 4.24642 9.74202 4.09752 9.83022 3.9209C9.9018 3.77767 9.93708 3.62642 9.93611 3.46713C9.93567 3.39872 9.96757 3.33272 10.0262 3.29915C10.1276 3.24098 10.2547 3.30385 10.2548 3.4224C10.2549 3.53246 10.243 3.64185 10.2189 3.75061C10.1758 3.93638 10.0961 4.1099 9.97961 4.27118C9.86176 4.42977 9.70611 4.56449 9.51273 4.67535Z" fill="white"/>
<path d="M12.9324 3.19518C12.8128 3.21139 12.7155 3.09825 12.7473 2.97972L13.5026 0.157785C13.5215 0.0871574 13.5802 0.0349458 13.6514 0.0252856L13.8262 0.00159691C13.8982 -0.00815615 13.9689 0.0273751 14.0049 0.091497L15.4263 2.6173C15.4862 2.72369 15.421 2.85792 15.3016 2.87411C15.2332 2.88337 15.1661 2.84951 15.132 2.78849L14.7843 2.16759C14.7483 2.10326 14.6775 2.06757 14.6054 2.07734L13.407 2.23976C13.3356 2.24944 13.2769 2.30182 13.258 2.37264L13.073 3.06969C13.0553 3.13655 12.9999 3.18605 12.9324 3.19518ZM13.4457 1.66049C13.4129 1.78578 13.5156 1.90478 13.642 1.88768L14.2963 1.79899C14.4218 1.78199 14.4906 1.64126 14.4283 1.52912L13.9994 0.757129C13.9206 0.615295 13.7124 0.642369 13.6711 0.799822L13.4457 1.66049Z" fill="white"/>
<path d="M19.0466 3.30266C18.7657 3.23416 18.5467 3.13979 18.3894 3.01947C18.2326 2.89618 18.1257 2.75349 18.0683 2.5914C18.0334 2.48773 18.0148 2.38027 18.0127 2.26902C18.0108 2.16714 18.1085 2.10019 18.2059 2.12393C18.2926 2.14507 18.3449 2.23139 18.3517 2.32183C18.3577 2.40279 18.3801 2.47703 18.4188 2.54454C18.4825 2.65144 18.5769 2.74223 18.7022 2.81691C18.8303 2.89227 18.9761 2.94988 19.1394 2.98971C19.38 3.0484 19.5803 3.05155 19.7402 2.99915C19.9006 2.94376 20.0004 2.82942 20.0393 2.65614C20.0625 2.55157 20.0455 2.45919 19.988 2.37897C19.934 2.29648 19.853 2.21997 19.7449 2.14952C19.6396 2.07973 19.522 2.01163 19.3918 1.94523C19.2623 1.87583 19.1317 1.80459 19 1.73152C18.8713 1.65914 18.7548 1.57875 18.6507 1.49034C18.5495 1.40264 18.4735 1.30374 18.4226 1.19365C18.3753 1.08128 18.3681 0.951887 18.4009 0.805495C18.4552 0.563493 18.5883 0.387969 18.8 0.278924C19.0148 0.170577 19.2997 0.15973 19.655 0.24638C19.9071 0.307873 20.1059 0.398869 20.251 0.519367C20.397 0.636878 20.4955 0.769651 20.547 0.917689C20.5785 1.00416 20.5968 1.09109 20.6016 1.17848C20.6071 1.28118 20.5075 1.34765 20.4093 1.32369C20.3241 1.30288 20.2706 1.21967 20.2557 1.1317C20.2393 1.03607 20.1972 0.944984 20.1297 0.85844C20.0271 0.723126 19.8454 0.623673 19.5847 0.560085C19.4242 0.520952 19.2902 0.505588 19.1825 0.513995C19.0748 0.522403 18.9878 0.546854 18.9213 0.587355C18.8583 0.625567 18.8104 0.670612 18.7776 0.722481C18.7477 0.775062 18.727 0.826742 18.7157 0.877532C18.6935 0.976126 18.7098 1.06517 18.7645 1.14468C18.8227 1.22191 18.9045 1.29541 19.0097 1.36519C19.1184 1.43268 19.2393 1.49998 19.3724 1.56708C19.5054 1.63419 19.636 1.70543 19.7641 1.78079C19.8957 1.85387 20.0119 1.93575 20.1123 2.02646C20.2166 2.11486 20.2921 2.21525 20.3395 2.32762C20.3897 2.44071 20.3982 2.57192 20.3646 2.72132C20.3028 2.99618 20.1551 3.18384 19.9208 3.28432C19.6875 3.38178 19.396 3.3879 19.0466 3.30266Z" fill="white"/>
<path d="M23.4771 5.3141C23.2953 5.18356 23.151 5.03151 23.0443 4.8579C22.9374 4.68429 22.8686 4.49894 22.8381 4.30187C22.8099 4.10652 22.8176 3.91089 22.8613 3.71496C22.9065 3.51653 22.9877 3.32887 23.1045 3.15199C23.2231 2.97257 23.3621 2.82668 23.5223 2.71429C23.6822 2.60193 23.8547 2.52465 24.0399 2.48245C24.2273 2.442 24.4178 2.44289 24.6115 2.48509C24.8051 2.52729 24.9929 2.61367 25.1747 2.74419C25.3563 2.87473 25.5006 3.02678 25.6075 3.20039C25.7144 3.374 25.7818 3.55848 25.8099 3.75383C25.8407 3.9509 25.8342 4.1474 25.7905 4.34333C25.7468 4.53923 25.6658 4.72689 25.5472 4.9063C25.4304 5.08321 25.2911 5.2291 25.1296 5.344C24.9694 5.45636 24.7958 5.53277 24.6083 5.57322C24.4233 5.61542 24.2338 5.6154 24.0403 5.5732C23.8466 5.531 23.6589 5.44462 23.4771 5.3141ZM23.6599 5.0374C23.8561 5.17837 24.0538 5.2551 24.2528 5.26761C24.4559 5.27931 24.6449 5.23635 24.8202 5.13868C24.9996 5.04022 25.151 4.8975 25.2745 4.7105C25.3998 4.52099 25.4737 4.32258 25.4964 4.11528C25.5213 3.90969 25.4915 3.71136 25.4069 3.52022C25.3265 3.32831 25.1881 3.16188 24.9917 3.02089C24.798 2.88165 24.5996 2.8062 24.3964 2.79447C24.1949 2.78023 24.0055 2.82107 23.8277 2.91699C23.6524 3.01467 23.5022 3.15825 23.3771 3.34778C23.2536 3.53476 23.1785 3.73231 23.1518 3.94042C23.1291 4.14773 23.1593 4.34821 23.2423 4.54186C23.3267 4.73299 23.466 4.89816 23.6599 5.0374Z" fill="white"/>
<path d="M26.6407 8.32712C26.5862 8.24537 26.6057 8.13418 26.6846 8.07673L28.7996 6.53975C28.8765 6.48392 28.9834 6.50333 29.0365 6.58279C29.0879 6.65971 29.0695 6.76437 28.9952 6.81844L27.1346 8.17045C27.0557 8.2279 27.0363 8.33909 27.0907 8.42083L27.8156 9.50512C27.8644 9.57834 27.847 9.67803 27.7761 9.7295C27.7031 9.78263 27.6012 9.76416 27.5506 9.6885L26.6407 8.32712Z" fill="white"/>
<path d="M28.6836 12.1923C28.6573 12.0963 28.7118 11.9967 28.8057 11.9688L31.2719 11.2338C31.3674 11.2052 31.4674 11.2618 31.4944 11.3595L31.9942 13.183C32.0174 13.2684 31.9691 13.3571 31.8855 13.3821C31.8004 13.4074 31.7114 13.357 31.6875 13.2701L31.2796 11.7824C31.2529 11.6847 31.1531 11.6283 31.0573 11.6567L30.4583 11.8353C30.3644 11.8632 30.3101 11.9628 30.3363 12.0588L30.6923 13.3579C30.7162 13.4446 30.6672 13.5345 30.5824 13.5598C30.496 13.5855 30.4057 13.5345 30.3816 13.4463L30.0278 12.1555C30.001 12.0578 29.901 12.0014 29.8055 12.0298L29.202 12.2096C29.1083 12.2376 29.0539 12.3372 29.0802 12.4331L29.4903 13.9292C29.5136 14.0146 29.4652 14.1033 29.3816 14.1282C29.2966 14.1536 29.2075 14.1032 29.1836 14.0163L28.6836 12.1923Z" fill="white"/>
<path d="M2.80354 13.9536C2.77692 14.0458 2.68143 14.098 2.59129 14.0696L0.126033 13.2948C0.0326132 13.2655 -0.0202858 13.1651 0.0073115 13.0696L0.361305 11.8449C0.447914 11.5453 0.595583 11.3321 0.804302 11.2054C1.01387 11.0758 1.25248 11.0531 1.52012 11.1372C1.70043 11.1939 1.83351 11.2757 1.91932 11.3828C2.00602 11.487 2.06181 11.6023 2.08673 11.7287C2.09299 11.7641 2.09811 11.7992 2.10212 11.8339C2.11649 11.959 2.23558 12.0538 2.35402 12.0176L3.16469 11.7702C3.29208 11.7313 3.41107 11.8517 3.37352 11.9816C3.35728 12.0379 3.3138 12.0817 3.25842 12.0976L2.16517 12.4124C2.10608 12.4294 2.05971 12.4761 2.04238 12.5361L1.82703 13.281C1.79944 13.3765 1.85236 13.4768 1.94576 13.5062L2.69113 13.7404C2.77959 13.7682 2.82967 13.8632 2.80354 13.9536ZM1.30418 13.3046C1.39937 13.3345 1.50022 13.2794 1.52834 13.182L1.76892 12.3498C1.79948 12.244 1.81497 12.132 1.81539 12.0136C1.81582 11.895 1.78722 11.7867 1.72956 11.6885C1.66993 11.5864 1.56828 11.5129 1.42459 11.4676C1.24711 11.4119 1.08939 11.4313 0.951452 11.5257C0.810699 11.6193 0.710174 11.7703 0.649885 11.9789L0.402886 12.8334C0.375288 12.9289 0.428183 13.0293 0.521607 13.0586L1.30418 13.3046Z" fill="white"/>
<path d="M5.4712 8.24438C5.33235 8.42324 5.17579 8.56153 5.00154 8.6592C4.82731 8.75688 4.64478 8.81402 4.45397 8.8306C4.26502 8.8448 4.07858 8.82164 3.89463 8.76112C3.7084 8.69868 3.53522 8.5999 3.37512 8.46476C3.21273 8.32769 3.084 8.17166 2.98892 7.99668C2.89382 7.82169 2.83325 7.63634 2.80722 7.44068C2.78303 7.24264 2.7986 7.04457 2.85392 6.84651C2.90922 6.64846 3.00631 6.46 3.14516 6.28114C3.284 6.10226 3.44056 5.96399 3.61479 5.86632C3.78904 5.76865 3.97065 5.7127 4.15959 5.6985C4.3504 5.6819 4.53777 5.70386 4.72172 5.76438C4.90567 5.8249 5.07885 5.92369 5.24122 6.06076C5.40132 6.19589 5.53006 6.35192 5.62743 6.52885C5.72251 6.70383 5.78217 6.89036 5.80634 7.0884C5.83239 7.28408 5.81776 7.48093 5.76243 7.67899C5.70713 7.87706 5.61004 8.06552 5.4712 8.24438ZM5.22075 8.03301C5.37071 7.83982 5.45933 7.6403 5.48666 7.4344C5.51356 7.2242 5.48709 7.02421 5.40725 6.83445C5.32696 6.64039 5.20221 6.47191 5.03296 6.32907C4.86142 6.18427 4.67741 6.09214 4.48095 6.05262C4.28631 6.01073 4.09437 6.02635 3.9051 6.0995C3.71538 6.16834 3.54556 6.29934 3.3956 6.49252C3.2475 6.68331 3.15999 6.88381 3.13311 7.09401C3.10392 7.30229 3.12833 7.5025 3.20633 7.69463C3.28617 7.88439 3.41186 8.05167 3.5834 8.19645C3.75263 8.33931 3.93573 8.43264 4.13263 8.47647C4.32911 8.51597 4.52312 8.50012 4.71468 8.42891C4.90395 8.35576 5.07265 8.2238 5.22075 8.03301Z" fill="white"/>
<path d="M9.51273 4.67535C9.25744 4.82167 9.00511 4.88755 8.75562 4.87296C8.50471 4.8557 8.27446 4.77236 8.06477 4.62297C7.85764 4.47209 7.68744 4.27028 7.5542 4.01752C7.42096 3.76479 7.34877 3.5068 7.33762 3.2436C7.32904 2.97892 7.3857 2.73286 7.50756 2.50545C7.62802 2.27534 7.81588 2.08713 8.07118 1.9408C8.26457 1.82994 8.45781 1.76648 8.65072 1.75039C8.8423 1.73162 9.02485 1.75304 9.19837 1.81465C9.29997 1.85074 9.39595 1.89905 9.48629 1.95964C9.58279 2.0243 9.56672 2.16547 9.46609 2.22317C9.40453 2.25842 9.32884 2.25014 9.26961 2.21109C9.14299 2.12764 9.00376 2.07913 8.85214 2.06561C8.66189 2.04861 8.46102 2.10073 8.24959 2.22191C8.04329 2.34017 7.89218 2.48981 7.79622 2.67086C7.70145 2.84774 7.65918 3.03828 7.66944 3.24247C7.67971 3.44665 7.73799 3.64958 7.8443 3.85125C7.94918 4.05022 8.08226 4.21029 8.24349 4.33144C8.40333 4.44992 8.58094 4.51617 8.77635 4.53018C8.97293 4.54005 9.17443 4.48586 9.38066 4.36762C9.59218 4.24642 9.74202 4.09752 9.83022 3.9209C9.9018 3.77767 9.93708 3.62642 9.93611 3.46713C9.93567 3.39872 9.96757 3.33272 10.0262 3.29915C10.1276 3.24098 10.2547 3.30385 10.2548 3.4224C10.2549 3.53246 10.243 3.64185 10.2189 3.75061C10.1758 3.93638 10.0961 4.1099 9.97961 4.27118C9.86176 4.42977 9.70611 4.56449 9.51273 4.67535Z" fill="white"/>
<path d="M12.9324 3.19518C12.8128 3.21139 12.7155 3.09825 12.7473 2.97972L13.5026 0.157785C13.5215 0.0871574 13.5802 0.0349458 13.6514 0.0252856L13.8262 0.00159691C13.8982 -0.00815615 13.9689 0.0273751 14.0049 0.091497L15.4263 2.6173C15.4862 2.72369 15.421 2.85792 15.3016 2.87411C15.2332 2.88337 15.1661 2.84951 15.132 2.78849L14.7843 2.16759C14.7483 2.10326 14.6775 2.06757 14.6054 2.07734L13.407 2.23976C13.3356 2.24944 13.2769 2.30182 13.258 2.37264L13.073 3.06969C13.0553 3.13655 12.9999 3.18605 12.9324 3.19518ZM13.4457 1.66049C13.4129 1.78578 13.5156 1.90478 13.642 1.88768L14.2963 1.79899C14.4218 1.78199 14.4906 1.64126 14.4283 1.52912L13.9994 0.757129C13.9206 0.615295 13.7124 0.642369 13.6711 0.799822L13.4457 1.66049Z" fill="white"/>
<path d="M19.0466 3.30266C18.7657 3.23416 18.5467 3.13979 18.3894 3.01947C18.2326 2.89618 18.1257 2.75349 18.0683 2.5914C18.0334 2.48773 18.0148 2.38027 18.0127 2.26902C18.0108 2.16714 18.1085 2.10019 18.2059 2.12393C18.2926 2.14507 18.3449 2.23139 18.3517 2.32183C18.3577 2.40279 18.3801 2.47703 18.4188 2.54454C18.4825 2.65144 18.5769 2.74223 18.7022 2.81691C18.8303 2.89227 18.9761 2.94988 19.1394 2.98971C19.38 3.0484 19.5803 3.05155 19.7402 2.99915C19.9006 2.94376 20.0004 2.82942 20.0393 2.65614C20.0625 2.55157 20.0455 2.45919 19.988 2.37897C19.934 2.29648 19.853 2.21997 19.7449 2.14952C19.6396 2.07973 19.522 2.01163 19.3918 1.94523C19.2623 1.87583 19.1317 1.80459 19 1.73152C18.8713 1.65914 18.7548 1.57875 18.6507 1.49034C18.5495 1.40264 18.4735 1.30374 18.4226 1.19365C18.3753 1.08128 18.3681 0.951887 18.4009 0.805495C18.4552 0.563493 18.5883 0.387969 18.8 0.278924C19.0148 0.170577 19.2997 0.15973 19.655 0.24638C19.9071 0.307873 20.1059 0.398869 20.251 0.519367C20.397 0.636878 20.4955 0.769651 20.547 0.917689C20.5785 1.00416 20.5968 1.09109 20.6016 1.17848C20.6071 1.28118 20.5075 1.34765 20.4093 1.32369C20.3241 1.30288 20.2706 1.21967 20.2557 1.1317C20.2393 1.03607 20.1972 0.944984 20.1297 0.85844C20.0271 0.723126 19.8454 0.623673 19.5847 0.560085C19.4242 0.520952 19.2902 0.505588 19.1825 0.513995C19.0748 0.522403 18.9878 0.546854 18.9213 0.587355C18.8583 0.625567 18.8104 0.670612 18.7776 0.722481C18.7477 0.775062 18.727 0.826742 18.7157 0.877532C18.6935 0.976126 18.7098 1.06517 18.7645 1.14468C18.8227 1.22191 18.9045 1.29541 19.0097 1.36519C19.1184 1.43268 19.2393 1.49998 19.3724 1.56708C19.5054 1.63419 19.636 1.70543 19.7641 1.78079C19.8957 1.85387 20.0119 1.93575 20.1123 2.02646C20.2166 2.11486 20.2921 2.21525 20.3395 2.32762C20.3897 2.44071 20.3982 2.57192 20.3646 2.72132C20.3028 2.99618 20.1551 3.18384 19.9208 3.28432C19.6875 3.38178 19.396 3.3879 19.0466 3.30266Z" fill="white"/>
<path d="M23.4771 5.3141C23.2953 5.18356 23.151 5.03151 23.0443 4.8579C22.9374 4.68429 22.8686 4.49894 22.8381 4.30187C22.8099 4.10652 22.8176 3.91089 22.8613 3.71496C22.9065 3.51653 22.9877 3.32887 23.1045 3.15199C23.2231 2.97257 23.3621 2.82668 23.5223 2.71429C23.6822 2.60193 23.8547 2.52465 24.0399 2.48245C24.2273 2.442 24.4178 2.44289 24.6115 2.48509C24.8051 2.52729 24.9929 2.61367 25.1747 2.74419C25.3563 2.87473 25.5006 3.02678 25.6075 3.20039C25.7144 3.374 25.7818 3.55848 25.8099 3.75383C25.8407 3.9509 25.8342 4.1474 25.7905 4.34333C25.7468 4.53923 25.6658 4.72689 25.5472 4.9063C25.4304 5.08321 25.2911 5.2291 25.1296 5.344C24.9694 5.45636 24.7958 5.53277 24.6083 5.57322C24.4233 5.61542 24.2338 5.6154 24.0403 5.5732C23.8466 5.531 23.6589 5.44462 23.4771 5.3141ZM23.6599 5.0374C23.8561 5.17837 24.0538 5.2551 24.2528 5.26761C24.4559 5.27931 24.6449 5.23635 24.8202 5.13868C24.9996 5.04022 25.151 4.8975 25.2745 4.7105C25.3998 4.52099 25.4737 4.32258 25.4964 4.11528C25.5213 3.90969 25.4915 3.71136 25.4069 3.52022C25.3265 3.32831 25.1881 3.16188 24.9917 3.02089C24.798 2.88165 24.5996 2.8062 24.3964 2.79447C24.1949 2.78023 24.0055 2.82107 23.8277 2.91699C23.6524 3.01467 23.5022 3.15825 23.3771 3.34778C23.2536 3.53476 23.1785 3.73231 23.1518 3.94042C23.1291 4.14773 23.1593 4.34821 23.2423 4.54186C23.3267 4.73299 23.466 4.89816 23.6599 5.0374Z" fill="white"/>
<path d="M26.6407 8.32712C26.5862 8.24537 26.6057 8.13418 26.6846 8.07673L28.7996 6.53975C28.8765 6.48392 28.9834 6.50333 29.0365 6.58279C29.0879 6.65971 29.0695 6.76437 28.9952 6.81844L27.1346 8.17045C27.0557 8.2279 27.0363 8.33909 27.0907 8.42083L27.8156 9.50512C27.8644 9.57834 27.847 9.67803 27.7761 9.7295C27.7031 9.78263 27.6012 9.76416 27.5506 9.6885L26.6407 8.32712Z" fill="white"/>
<path d="M28.6836 12.1923C28.6573 12.0963 28.7118 11.9967 28.8057 11.9688L31.2719 11.2338C31.3674 11.2052 31.4674 11.2618 31.4944 11.3595L31.9942 13.183C32.0174 13.2684 31.9691 13.3571 31.8855 13.3821C31.8004 13.4074 31.7114 13.357 31.6875 13.2701L31.2796 11.7824C31.2529 11.6847 31.1531 11.6283 31.0573 11.6567L30.4583 11.8353C30.3644 11.8632 30.3101 11.9628 30.3363 12.0588L30.6923 13.3579C30.7162 13.4446 30.6672 13.5345 30.5824 13.5598C30.496 13.5855 30.4057 13.5345 30.3816 13.4463L30.0278 12.1555C30.001 12.0578 29.901 12.0014 29.8055 12.0298L29.202 12.2096C29.1083 12.2376 29.0539 12.3372 29.0802 12.4331L29.4903 13.9292C29.5136 14.0146 29.4652 14.1033 29.3816 14.1282C29.2966 14.1536 29.2075 14.1032 29.1836 14.0163L28.6836 12.1923Z" fill="white"/>
<path d="M2.80354 13.9536C2.77692 14.0458 2.68143 14.098 2.59129 14.0696L0.126033 13.2948C0.0326132 13.2655 -0.0202858 13.1651 0.0073115 13.0696L0.361305 11.8449C0.447914 11.5453 0.595583 11.3321 0.804302 11.2054C1.01387 11.0758 1.25248 11.0531 1.52012 11.1372C1.70043 11.1939 1.83351 11.2757 1.91932 11.3828C2.00602 11.487 2.06181 11.6023 2.08673 11.7287C2.09299 11.7641 2.09811 11.7992 2.10212 11.8339C2.11649 11.959 2.23558 12.0538 2.35402 12.0176L3.16469 11.7702C3.29208 11.7313 3.41107 11.8517 3.37352 11.9816C3.35728 12.0379 3.3138 12.0817 3.25842 12.0976L2.16517 12.4124C2.10608 12.4294 2.05971 12.4761 2.04238 12.5361L1.82703 13.281C1.79944 13.3765 1.85236 13.4768 1.94576 13.5062L2.69113 13.7404C2.77959 13.7682 2.82967 13.8632 2.80354 13.9536ZM1.30418 13.3046C1.39937 13.3345 1.50022 13.2794 1.52834 13.182L1.76892 12.3498C1.79948 12.244 1.81497 12.132 1.81539 12.0136C1.81582 11.895 1.78722 11.7867 1.72956 11.6885C1.66993 11.5864 1.56828 11.5129 1.42459 11.4676C1.24711 11.4119 1.08939 11.4313 0.951452 11.5257C0.810699 11.6193 0.710174 11.7703 0.649885 11.9789L0.402886 12.8334C0.375288 12.9289 0.428183 13.0293 0.521607 13.0586L1.30418 13.3046Z" fill="white"/>
<path d="M5.4712 8.24438C5.33235 8.42324 5.17579 8.56153 5.00154 8.6592C4.82731 8.75688 4.64478 8.81402 4.45397 8.8306C4.26502 8.8448 4.07858 8.82164 3.89463 8.76112C3.7084 8.69868 3.53522 8.5999 3.37512 8.46476C3.21273 8.32769 3.084 8.17166 2.98892 7.99668C2.89382 7.82169 2.83325 7.63634 2.80722 7.44068C2.78303 7.24264 2.7986 7.04457 2.85392 6.84651C2.90922 6.64846 3.00631 6.46 3.14516 6.28114C3.284 6.10226 3.44056 5.96399 3.61479 5.86632C3.78904 5.76865 3.97065 5.7127 4.15959 5.6985C4.3504 5.6819 4.53777 5.70386 4.72172 5.76438C4.90567 5.8249 5.07885 5.92369 5.24122 6.06076C5.40132 6.19589 5.53006 6.35192 5.62743 6.52885C5.72251 6.70383 5.78217 6.89036 5.80634 7.0884C5.83239 7.28408 5.81776 7.48093 5.76243 7.67899C5.70713 7.87706 5.61004 8.06552 5.4712 8.24438ZM5.22075 8.03301C5.37071 7.83982 5.45933 7.6403 5.48666 7.4344C5.51356 7.2242 5.48709 7.02421 5.40725 6.83445C5.32696 6.64039 5.20221 6.47191 5.03296 6.32907C4.86142 6.18427 4.67741 6.09214 4.48095 6.05262C4.28631 6.01073 4.09437 6.02635 3.9051 6.0995C3.71538 6.16834 3.54556 6.29934 3.3956 6.49252C3.2475 6.68331 3.15999 6.88381 3.13311 7.09401C3.10392 7.30229 3.12833 7.5025 3.20633 7.69463C3.28617 7.88439 3.41186 8.05167 3.5834 8.19645C3.75263 8.33931 3.93573 8.43264 4.13263 8.47647C4.32911 8.51597 4.52312 8.50012 4.71468 8.42891C4.90395 8.35576 5.07265 8.2238 5.22075 8.03301Z" fill="white"/>
<path d="M9.51273 4.67535C9.25744 4.82167 9.00511 4.88755 8.75562 4.87296C8.50471 4.8557 8.27446 4.77236 8.06477 4.62297C7.85764 4.47209 7.68744 4.27028 7.5542 4.01752C7.42096 3.76479 7.34877 3.5068 7.33762 3.2436C7.32904 2.97892 7.3857 2.73286 7.50756 2.50545C7.62802 2.27534 7.81588 2.08713 8.07118 1.9408C8.26457 1.82994 8.45781 1.76648 8.65072 1.75039C8.8423 1.73162 9.02485 1.75304 9.19837 1.81465C9.29997 1.85074 9.39595 1.89905 9.48629 1.95964C9.58279 2.0243 9.56672 2.16547 9.46609 2.22317C9.40453 2.25842 9.32884 2.25014 9.26961 2.21109C9.14299 2.12764 9.00376 2.07913 8.85214 2.06561C8.66189 2.04861 8.46102 2.10073 8.24959 2.22191C8.04329 2.34017 7.89218 2.48981 7.79622 2.67086C7.70145 2.84774 7.65918 3.03828 7.66944 3.24247C7.67971 3.44665 7.73799 3.64958 7.8443 3.85125C7.94918 4.05022 8.08226 4.21029 8.24349 4.33144C8.40333 4.44992 8.58094 4.51617 8.77635 4.53018C8.97293 4.54005 9.17443 4.48586 9.38066 4.36762C9.59218 4.24642 9.74202 4.09752 9.83022 3.9209C9.9018 3.77767 9.93708 3.62642 9.93611 3.46713C9.93567 3.39872 9.96757 3.33272 10.0262 3.29915C10.1276 3.24098 10.2547 3.30385 10.2548 3.4224C10.2549 3.53246 10.243 3.64185 10.2189 3.75061C10.1758 3.93638 10.0961 4.1099 9.97961 4.27118C9.86176 4.42977 9.70611 4.56449 9.51273 4.67535Z" fill="white"/>
<path d="M12.9324 3.19518C12.8128 3.21139 12.7155 3.09825 12.7473 2.97972L13.5026 0.157785C13.5215 0.0871574 13.5802 0.0349458 13.6514 0.0252856L13.8262 0.00159691C13.8982 -0.00815615 13.9689 0.0273751 14.0049 0.091497L15.4263 2.6173C15.4862 2.72369 15.421 2.85792 15.3016 2.87411C15.2332 2.88337 15.1661 2.84951 15.132 2.78849L14.7843 2.16759C14.7483 2.10326 14.6775 2.06757 14.6054 2.07734L13.407 2.23976C13.3356 2.24944 13.2769 2.30182 13.258 2.37264L13.073 3.06969C13.0553 3.13655 12.9999 3.18605 12.9324 3.19518ZM13.4457 1.66049C13.4129 1.78578 13.5156 1.90478 13.642 1.88768L14.2963 1.79899C14.4218 1.78199 14.4906 1.64126 14.4283 1.52912L13.9994 0.757129C13.9206 0.615295 13.7124 0.642369 13.6711 0.799822L13.4457 1.66049Z" fill="white"/>
<path d="M19.0466 3.30266C18.7657 3.23416 18.5467 3.13979 18.3894 3.01947C18.2326 2.89618 18.1257 2.75349 18.0683 2.5914C18.0334 2.48773 18.0148 2.38027 18.0127 2.26902C18.0108 2.16714 18.1085 2.10019 18.2059 2.12393C18.2926 2.14507 18.3449 2.23139 18.3517 2.32183C18.3577 2.40279 18.3801 2.47703 18.4188 2.54454C18.4825 2.65144 18.5769 2.74223 18.7022 2.81691C18.8303 2.89227 18.9761 2.94988 19.1394 2.98971C19.38 3.0484 19.5803 3.05155 19.7402 2.99915C19.9006 2.94376 20.0004 2.82942 20.0393 2.65614C20.0625 2.55157 20.0455 2.45919 19.988 2.37897C19.934 2.29648 19.853 2.21997 19.7449 2.14952C19.6396 2.07973 19.522 2.01163 19.3918 1.94523C19.2623 1.87583 19.1317 1.80459 19 1.73152C18.8713 1.65914 18.7548 1.57875 18.6507 1.49034C18.5495 1.40264 18.4735 1.30374 18.4226 1.19365C18.3753 1.08128 18.3681 0.951887 18.4009 0.805495C18.4552 0.563493 18.5883 0.387969 18.8 0.278924C19.0148 0.170577 19.2997 0.15973 19.655 0.24638C19.9071 0.307873 20.1059 0.398869 20.251 0.519367C20.397 0.636878 20.4955 0.769651 20.547 0.917689C20.5785 1.00416 20.5968 1.09109 20.6016 1.17848C20.6071 1.28118 20.5075 1.34765 20.4093 1.32369C20.3241 1.30288 20.2706 1.21967 20.2557 1.1317C20.2393 1.03607 20.1972 0.944984 20.1297 0.85844C20.0271 0.723126 19.8454 0.623673 19.5847 0.560085C19.4242 0.520952 19.2902 0.505588 19.1825 0.513995C19.0748 0.522403 18.9878 0.546854 18.9213 0.587355C18.8583 0.625567 18.8104 0.670612 18.7776 0.722481C18.7477 0.775062 18.727 0.826742 18.7157 0.877532C18.6935 0.976126 18.7098 1.06517 18.7645 1.14468C18.8227 1.22191 18.9045 1.29541 19.0097 1.36519C19.1184 1.43268 19.2393 1.49998 19.3724 1.56708C19.5054 1.63419 19.636 1.70543 19.7641 1.78079C19.8957 1.85387 20.0119 1.93575 20.1123 2.02646C20.2166 2.11486 20.2921 2.21525 20.3395 2.32762C20.3897 2.44071 20.3982 2.57192 20.3646 2.72132C20.3028 2.99618 20.1551 3.18384 19.9208 3.28432C19.6875 3.38178 19.396 3.3879 19.0466 3.30266Z" fill="white"/>
<path d="M23.4771 5.3141C23.2953 5.18356 23.151 5.03151 23.0443 4.8579C22.9374 4.68429 22.8686 4.49894 22.8381 4.30187C22.8099 4.10652 22.8176 3.91089 22.8613 3.71496C22.9065 3.51653 22.9877 3.32887 23.1045 3.15199C23.2231 2.97257 23.3621 2.82668 23.5223 2.71429C23.6822 2.60193 23.8547 2.52465 24.0399 2.48245C24.2273 2.442 24.4178 2.44289 24.6115 2.48509C24.8051 2.52729 24.9929 2.61367 25.1747 2.74419C25.3563 2.87473 25.5006 3.02678 25.6075 3.20039C25.7144 3.374 25.7818 3.55848 25.8099 3.75383C25.8407 3.9509 25.8342 4.1474 25.7905 4.34333C25.7468 4.53923 25.6658 4.72689 25.5472 4.9063C25.4304 5.08321 25.2911 5.2291 25.1296 5.344C24.9694 5.45636 24.7958 5.53277 24.6083 5.57322C24.4233 5.61542 24.2338 5.6154 24.0403 5.5732C23.8466 5.531 23.6589 5.44462 23.4771 5.3141ZM23.6599 5.0374C23.8561 5.17837 24.0538 5.2551 24.2528 5.26761C24.4559 5.27931 24.6449 5.23635 24.8202 5.13868C24.9996 5.04022 25.151 4.8975 25.2745 4.7105C25.3998 4.52099 25.4737 4.32258 25.4964 4.11528C25.5213 3.90969 25.4915 3.71136 25.4069 3.52022C25.3265 3.32831 25.1881 3.16188 24.9917 3.02089C24.798 2.88165 24.5996 2.8062 24.3964 2.79447C24.1949 2.78023 24.0055 2.82107 23.8277 2.91699C23.6524 3.01467 23.5022 3.15825 23.3771 3.34778C23.2536 3.53476 23.1785 3.73231 23.1518 3.94042C23.1291 4.14773 23.1593 4.34821 23.2423 4.54186C23.3267 4.73299 23.466 4.89816 23.6599 5.0374Z" fill="white"/>
<path d="M26.6407 8.32712C26.5862 8.24537 26.6057 8.13418 26.6846 8.07673L28.7996 6.53975C28.8765 6.48392 28.9834 6.50333 29.0365 6.58279C29.0879 6.65971 29.0695 6.76437 28.9952 6.81844L27.1346 8.17045C27.0557 8.2279 27.0363 8.33909 27.0907 8.42083L27.8156 9.50512C27.8644 9.57834 27.847 9.67803 27.7761 9.7295C27.7031 9.78263 27.6012 9.76416 27.5506 9.6885L26.6407 8.32712Z" fill="white"/>
<path d="M28.6836 12.1923C28.6573 12.0963 28.7118 11.9967 28.8057 11.9688L31.2719 11.2338C31.3674 11.2052 31.4674 11.2618 31.4944 11.3595L31.9942 13.183C32.0174 13.2684 31.9691 13.3571 31.8855 13.3821C31.8004 13.4074 31.7114 13.357 31.6875 13.2701L31.2796 11.7824C31.2529 11.6847 31.1531 11.6283 31.0573 11.6567L30.4583 11.8353C30.3644 11.8632 30.3101 11.9628 30.3363 12.0588L30.6923 13.3579C30.7162 13.4446 30.6672 13.5345 30.5824 13.5598C30.496 13.5855 30.4057 13.5345 30.3816 13.4463L30.0278 12.1555C30.001 12.0578 29.901 12.0014 29.8055 12.0298L29.202 12.2096C29.1083 12.2376 29.0539 12.3372 29.0802 12.4331L29.4903 13.9292C29.5136 14.0146 29.4652 14.1033 29.3816 14.1282C29.2966 14.1536 29.2075 14.1032 29.1836 14.0163L28.6836 12.1923Z" fill="white"/>
</svg>
