<svg width="100%" height="100%" viewBox="0 0 135 136" fill="none" xmlns="http://www.w3.org/2000/svg">
<path d="M117.313 63.8828L129.073 58.2015C130.592 57.4674 132.417 58.0025 133.481 60.2055C134.318 61.9377 132.817 64.3734 131.03 64.7888L118.336 66.8342C117.571 66.943 116.841 66.6911 116.466 65.9151C116.092 65.1397 116.554 64.2499 117.313 63.8828Z" fill="#20681F"/>
<path d="M37.8032 108.957L26.889 116.129C25.4787 117.056 25.001 118.896 26.3446 120.94C27.4013 122.548 30.2619 122.511 31.5359 121.192L39.8106 111.35C40.2969 110.749 40.4554 109.994 39.9821 109.274C39.5089 108.554 38.5082 108.494 37.8032 108.957Z" fill="#20681F"/>
<path d="M67.5421 97.1008C68.4472 97.0483 69.1554 96.3157 69.1893 95.3969C69.2062 94.9417 69.2562 94.4894 69.3381 94.0518C69.656 92.3576 71.3076 87.7062 71.8063 86.3208C71.9736 85.8555 71.8401 85.3403 71.4659 85.0083L69.7877 83.518C69.6089 83.3597 69.5337 83.1183 69.5918 82.8883L70.047 81.078C70.0808 80.9442 70.1954 80.8489 70.3321 80.841L70.4994 80.8315C70.8189 80.8131 71.0597 80.5349 71.0359 80.2118L71.011 79.8728C70.9767 79.4048 70.5864 79.0362 70.1228 79.0335L65.9228 79.0093C65.8968 79.0095 65.8707 79.0102 65.8453 79.0122C65.3054 79.0495 64.7995 79.3761 64.2594 79.4073L63.7895 79.4344C63.4701 79.4531 63.2292 79.7309 63.253 80.054L63.985 90.0351C64.2022 92.9967 64.9547 95.305 65.2681 96.1602C65.3542 96.3946 65.5332 96.5849 65.7596 96.6826L66.7619 97.1154C66.8034 97.1331 66.8469 97.1403 66.8896 97.1377L67.5421 97.1008ZM68.7858 93.9371C68.6987 94.4021 68.6452 94.8826 68.6275 95.3664C68.6263 95.3943 68.5898 95.4 68.5795 95.373C68.55 95.2977 68.5197 95.2155 68.4874 95.1259C68.2885 94.5689 67.9967 93.6087 67.7383 92.1989C67.6937 91.9559 67.5801 91.7352 67.4101 91.5614L67.0657 91.2089C67.0371 91.1796 67.0276 91.1373 67.0279 91.0962C67.0278 91.0813 67.0279 91.0664 67.0279 91.0516C67.0306 90.3034 67.983 90.0252 68.4077 90.6415C68.4875 90.7574 68.534 90.8933 68.5464 91.0336C68.5682 91.281 68.5983 91.5041 68.6373 91.7052C68.7749 92.4162 68.9326 93.1822 68.7942 93.8929C68.7911 93.9078 68.7883 93.9226 68.7858 93.9371ZM67.3032 86.0854C67.2676 86.0336 67.2509 85.9676 67.2554 85.9047C67.2747 85.6445 67.6091 85.558 67.7573 85.7725L68.5502 86.9229C68.6373 87.0495 68.6763 87.2017 68.6604 87.3519C68.6387 87.5596 68.3681 87.6302 68.2497 87.4585L67.3032 86.0854ZM68.4855 88.7867C68.5192 88.8352 68.5355 88.8983 68.5321 88.9574C68.5192 89.2186 68.1745 89.317 68.0262 89.1021L67.187 87.8841C67.1516 87.8333 67.1347 87.7705 67.138 87.7086C67.1529 87.4426 67.4945 87.3491 67.6456 87.5682L68.4855 88.7867ZM70.1291 79.6013C70.2966 79.6024 70.4379 79.7356 70.4503 79.9049L70.4749 80.2441C70.476 80.2547 70.4682 80.2637 70.4578 80.2643L70.2908 80.2736C69.912 80.2958 69.5951 80.5591 69.502 80.9295L69.0467 82.7398C68.9365 83.1787 69.0795 83.6392 69.4205 83.9419L71.0988 85.4322C71.2946 85.606 71.365 85.8754 71.2775 86.1184C71.2155 86.2909 71.0014 86.3507 70.8593 86.2345L70.8212 86.2031C70.6994 86.1037 70.5224 86.1216 70.426 86.243C70.3805 86.3001 70.3612 86.3704 70.3662 86.4391C70.3718 86.5155 70.4079 86.5902 70.472 86.6425L70.8158 86.9233C70.8967 86.9893 70.9291 87.0947 70.8942 87.1931C70.8371 87.3552 70.6349 87.4164 70.5016 87.3076L70.496 87.3029C70.3744 87.2037 70.1976 87.2213 70.1011 87.3425C70.0557 87.3998 70.0363 87.47 70.0413 87.5387C70.0469 87.6151 70.0831 87.6898 70.1471 87.7422L70.4442 87.9849C70.525 88.0509 70.5557 88.1598 70.5216 88.2582C70.5157 88.2747 70.5103 88.2915 70.5043 88.3081C70.4563 88.4467 70.2849 88.4958 70.1714 88.4029C70.0495 88.3035 69.8727 88.3209 69.7762 88.4422C69.7305 88.4996 69.7111 88.5698 69.7162 88.6386C69.7219 88.7152 69.7579 88.7896 69.8219 88.842L70.0794 89.0521C70.1591 89.1175 70.19 89.2254 70.1569 89.3232C70.1459 89.3564 70.1349 89.3896 70.1236 89.4224C70.0844 89.5386 69.9411 89.5802 69.8462 89.5026C69.7244 89.4032 69.5478 89.421 69.4511 89.542C69.4059 89.5995 69.3864 89.6698 69.3913 89.7382C69.3971 89.8148 69.433 89.8893 69.4973 89.9419L69.5937 90.0206C69.7502 90.1485 69.8083 90.3707 69.7454 90.563C69.5988 91.0158 69.0941 90.9773 69.0762 90.5015C69.0456 89.6754 69.0922 88.6292 69.22 87.4214C69.2502 87.1343 69.1758 86.844 69.01 86.6034L67.8306 84.8925C67.5451 84.4787 67.4124 83.9781 67.4597 83.4772C67.4677 83.3919 67.4755 83.31 67.4829 83.2325C67.5343 82.7015 67.8146 82.228 68.0964 81.7751C68.2374 81.5482 68.3483 81.3011 68.4245 81.0396L68.4867 80.8259C68.6991 80.0969 69.3693 79.5968 70.1291 79.6013ZM65.932 79.577L66.924 79.5827C67.5925 79.5868 68.0717 80.229 67.8847 80.8712C67.7237 81.4242 67.3708 81.8995 66.8914 82.2094C66.2829 82.6027 65.4752 82.2007 65.4221 81.478L65.3313 80.2376C65.3186 80.0647 65.3753 79.9001 65.4905 79.7739C65.6056 79.6478 65.7635 79.5778 65.932 79.577ZM65.9729 96.1602C65.8916 96.1257 65.8263 96.0566 65.7952 95.9711C65.5572 95.3218 64.7637 92.9725 64.5456 90.0029L63.814 80.0217C63.8129 80.0111 63.8207 80.0022 63.8311 80.0016L64.7286 79.95C64.7388 79.9491 64.7477 79.9573 64.7485 79.9676L65.0144 83.5973C65.1135 84.9488 65.1223 86.1016 65.1304 87.2166C65.1386 88.3405 65.147 89.503 65.2478 90.8735C65.4031 92.9909 65.8915 94.8284 66.2395 95.9162C66.2915 96.0781 66.1286 96.2277 65.9729 96.1602ZM67.5006 96.5333C67.2355 96.5485 66.9908 96.3899 66.9053 96.1391C66.5756 95.1732 65.9786 93.1618 65.8083 90.8411C65.8053 90.7977 65.8579 90.7744 65.8882 90.8053L67.0133 91.9571C67.1007 92.0464 67.1617 92.1656 67.1853 92.2929C67.4411 93.6863 67.7287 94.6668 67.9576 95.3081C68.1428 95.8269 68.0499 96.5015 67.5006 96.5333Z" fill="black"/>
<path d="M72.514 42.739C73.2925 43.414 73.4528 44.562 72.8859 45.4104C72.6056 45.8306 72.3566 46.2716 72.1459 46.721C71.331 48.4615 69.7923 53.782 69.3404 55.371C69.1883 55.9048 68.7341 56.2745 68.1825 56.313L65.7085 56.4862C65.4452 56.5046 65.2211 56.6694 65.1239 56.9158L64.3565 58.8564C64.2999 58.9998 64.3409 59.1649 64.4588 59.267L64.6023 59.3915C64.8771 59.6295 64.9124 60.0459 64.6816 60.3196L64.4386 60.6068C64.1042 61.003 63.5144 61.0632 63.0964 60.7437L59.3117 57.8531C59.2479 57.8036 59.1893 57.749 59.1362 57.6905C58.7865 57.3036 58.5824 56.78 58.1883 56.4383L57.673 55.9918C57.3982 55.7538 57.3627 55.3375 57.5939 55.064L64.7331 46.6134C66.8513 44.1063 69.026 42.5562 69.8628 42.0062C70.0917 41.8557 70.376 41.8087 70.6425 41.8784L71.8238 42.185C71.8723 42.1977 71.9158 42.2215 71.9526 42.2532L72.514 42.739ZM71.5756 46.441C71.7991 45.9631 72.0639 45.4947 72.3618 45.0484C72.3802 45.0214 72.3497 44.9923 72.322 45.0096C72.2476 45.0568 72.1671 45.1091 72.0803 45.167C71.5399 45.5292 70.6544 46.1885 69.5065 47.2744C69.3086 47.4616 69.0637 47.5809 68.7984 47.6191L68.2612 47.6964C68.2161 47.7029 68.1796 47.7343 68.1531 47.7714C68.1362 47.795 68.1193 47.8186 68.1021 47.8421C67.614 48.5232 68.2846 49.4051 69.0806 49.1419C69.2378 49.0896 69.3767 48.9935 69.4856 48.8688C69.6821 48.644 69.8693 48.4513 70.0485 48.2905C70.6036 47.7911 71.211 47.2551 71.5153 46.5734C71.5356 46.5275 71.556 46.4832 71.5756 46.441ZM65.1538 52.4568C65.0831 52.4804 65.021 52.5314 64.9816 52.5951C64.8276 52.8455 65.0722 53.147 65.3516 53.0548L66.8091 52.5727C66.9694 52.5195 67.1032 52.4101 67.1867 52.2642C67.3045 52.058 67.1058 51.8112 66.8803 51.886L65.1538 52.4568ZM67.9539 50.8575C68.0206 50.8355 68.0804 50.7871 68.1183 50.7283C68.2788 50.4804 68.0333 50.1612 67.7532 50.2537L66.2178 50.7619C66.148 50.7849 66.0872 50.8325 66.0477 50.8943C65.886 51.1474 66.1323 51.4599 66.4173 51.3659L67.9539 50.8575ZM63.4709 60.2386C63.6222 60.3541 63.8354 60.3322 63.9566 60.1889L64.1991 59.9015C64.2066 59.8928 64.2056 59.8793 64.1967 59.8718L64.0528 59.7472C63.7271 59.4649 63.6139 59.0086 63.7706 58.6117L64.538 56.6712C64.724 56.201 65.1515 55.8865 65.6543 55.8516L68.1281 55.6781C68.417 55.658 68.6552 55.4646 68.7344 55.1858C68.7915 54.9849 68.6374 54.7862 68.4287 54.7919L68.3799 54.7934C68.206 54.798 68.0588 54.6595 68.0511 54.4838C68.0476 54.4009 68.0755 54.3246 68.1248 54.266C68.1793 54.2015 68.2602 54.1594 68.352 54.1571L68.8303 54.1439C68.9525 54.1405 69.0569 54.0639 69.0909 53.9465C69.1443 53.763 69.0057 53.5754 68.8145 53.5807L68.8025 53.5808C68.6286 53.5859 68.4814 53.4474 68.4737 53.2716C68.4699 53.1884 68.4983 53.1119 68.5473 53.0539C68.602 52.989 68.6828 52.9473 68.7744 52.9446L69.1866 52.9333C69.308 52.9299 69.4137 52.8489 69.4486 52.7322C69.4536 52.7148 69.4587 52.6975 69.4637 52.6801C69.5108 52.5222 69.3899 52.3643 69.2251 52.3687C69.0513 52.3732 68.904 52.2347 68.8961 52.0592C68.8925 51.9763 68.9208 51.8998 68.9699 51.8417C69.0245 51.7768 69.1054 51.7347 69.197 51.7325L69.552 51.7225C69.6726 51.7191 69.7778 51.6388 69.8131 51.5235C69.824 51.488 69.8349 51.4524 69.8458 51.4168C69.8861 51.285 69.7853 51.1525 69.6474 51.1562C69.4738 51.161 69.3266 51.0226 69.3189 50.8468C69.3152 50.7636 69.3435 50.6872 69.3925 50.6291C69.4474 50.5645 69.528 50.5225 69.6196 50.5199L69.7336 50.517C69.9698 50.5102 70.1801 50.3412 70.2519 50.1158C70.4148 49.6049 69.9319 49.3089 69.6014 49.731C69.0382 50.4503 68.402 51.42 67.7338 52.5896C67.5746 52.8683 67.3192 53.0773 67.0144 53.178L64.7981 53.9111C64.3042 54.0747 63.8852 54.4103 63.622 54.8589C63.5428 54.9932 63.47 55.1182 63.4031 55.2331C63.1376 55.6888 63.0817 56.2285 63.0646 56.7557C63.0536 57.0986 62.9906 57.4395 62.8753 57.7657L62.7989 57.983C62.5098 58.801 62.7815 59.7119 63.4709 60.2386ZM59.6884 57.3497L60.5981 58.0443C61.1839 58.4919 62.0361 58.2377 62.2813 57.5426C62.496 56.9345 62.4881 56.2632 62.2592 55.6526C61.9701 54.882 60.9583 54.7069 60.4271 55.336L59.5784 56.3405C59.4546 56.4868 59.3985 56.6735 59.42 56.8668C59.4416 57.0598 59.5377 57.2322 59.6884 57.3497ZM70.4957 42.4945C70.3992 42.4696 70.2957 42.4865 70.2126 42.5415C69.5774 42.9592 67.3394 44.5173 65.2153 47.0315L58.0762 55.4816C58.0684 55.4906 58.0698 55.5039 58.0787 55.5117L58.8511 56.181C58.8595 56.1886 58.8727 56.187 58.8798 56.1784L61.4761 53.1054C62.4427 51.9612 63.199 50.9325 63.9304 49.9378C64.668 48.9346 65.4305 47.897 66.4109 46.7367C67.9223 44.9475 69.5511 43.639 70.5701 42.9033C70.7266 42.7901 70.6825 42.543 70.4957 42.4945ZM72.1083 43.2196C71.8813 43.0228 71.5517 42.9989 71.3045 43.1701C70.3769 43.8123 68.545 45.1993 66.893 47.1549C66.8613 47.1924 66.8931 47.2492 66.9416 47.242L68.6991 46.9889C68.8358 46.9694 68.9679 46.9044 69.0718 46.8063C70.1867 45.7514 71.0706 45.0761 71.6909 44.6577C72.21 44.3075 72.5819 43.6297 72.1083 43.2196Z" fill="black"/>
<path d="M67.7013 70.7433C67.5264 70.4346 67.6331 70.0528 67.925 69.8873C68.2173 69.7216 68.5997 69.8262 68.7746 70.1348C68.9497 70.4436 68.843 70.8252 68.5506 70.9909C68.2586 71.1564 67.8764 71.0521 67.7013 70.7433Z" stroke="black" stroke-width="0.5"/>
<path d="M17.0776 100.121C16.8024 99.6361 16.973 99.0189 17.4584 98.7437C17.9438 98.4685 18.561 98.6392 18.8361 99.1245C19.1112 99.6097 18.9407 100.227 18.4553 100.502C17.9698 100.777 17.3526 100.607 17.0776 100.121Z" stroke="black" stroke-width="0.5"/>
<path d="M118.754 42.4816C118.479 41.9963 118.65 41.3791 119.135 41.1039C119.62 40.829 120.238 40.9995 120.513 41.4847C120.788 41.9698 120.617 42.5875 120.132 42.8623C119.646 43.1375 119.029 42.9668 118.754 42.4816Z" stroke="black" stroke-width="0.5"/>
<path d="M62.7695 113.901C63.5571 112.966 64.8619 112.564 65.7701 113.304C66.678 114.043 66.8655 114.872 66.3982 115.904L59.2953 131.826C58.1486 134.008 54.4682 135.073 52.5174 133.484C50.567 131.895 50.0292 129.049 51.4542 127.355L62.7695 113.901Z" fill="black"/>
<path d="M87.222 103.577C88.6039 102.794 90.4164 103.315 91.3821 104.749L101.661 117.064C102.065 117.496 102.42 117.977 102.716 118.495C104.552 121.734 103.448 125.334 100.503 127.004C97.5578 128.673 93.903 127.771 92.0669 124.532C91.8248 124.099 91.6259 123.645 91.4736 123.176L85.9267 107.342C85.698 106.601 85.7011 105.827 85.9361 105.145C86.1711 104.462 86.6242 103.91 87.222 103.577Z" fill="#F2994A"/>
<path d="M108.388 88.3387L126.561 89.77C128.908 89.9552 130.69 91.8416 130.346 95.1644C130.076 97.7773 126.504 99.6055 124.071 98.8618L107.446 92.5118C106.454 92.1127 105.77 91.3133 105.891 90.1431C106.012 88.973 107.214 88.2456 108.388 88.3387Z" fill="#FF533D"/>
<path d="M15.2712 84.0639C15.3577 84.4342 15.1249 84.8039 14.7533 84.8854L4.59469 87.1172C4.20972 87.2018 3.82826 86.9613 3.73851 86.5774L2.58807 81.6544C2.30669 80.4501 2.40815 79.4219 2.89269 78.5705C3.37449 77.7074 4.16684 77.1546 5.26978 76.9124C6.01279 76.7492 6.63938 76.7666 7.14938 76.9648C7.65699 77.1515 8.07772 77.4377 8.41201 77.8237C8.50305 77.9331 8.58958 78.0439 8.67149 78.1556C8.96614 78.5579 9.56906 78.648 9.91372 78.2878L12.2734 75.8235C12.6442 75.4365 13.2967 75.6148 13.4187 76.1369C13.4717 76.3632 13.4047 76.6003 13.2415 76.7652L10.0224 80.0232C9.84838 80.1992 9.7769 80.4522 9.83336 80.6935L10.533 83.6879C10.6228 84.0718 11.0043 84.3123 11.3892 84.2277L14.4605 83.5528C14.8251 83.4728 15.1862 83.7004 15.2712 84.0639ZM8.7454 84.8086C9.13766 84.7224 9.38371 84.332 9.29225 83.9408L8.51054 80.5954C8.41116 80.1702 8.24662 79.7534 8.01683 79.3446C7.78683 78.9354 7.47496 78.619 7.08093 78.3952C6.6725 78.1622 6.1723 78.1108 5.58011 78.2407C4.84878 78.4015 4.33356 78.7818 4.03417 79.3813C3.72335 79.9835 3.66589 80.7039 3.86177 81.5422L4.66445 84.9772C4.7542 85.3611 5.13565 85.6016 5.52062 85.5171L8.7454 84.8086Z" fill="black" stroke="black" stroke-width="1.5"/>
<path d="M13.4761 59.0912C13.3385 59.9835 13.0596 60.7711 12.6392 61.4541C12.219 62.1369 11.6904 62.6967 11.0537 63.1332C10.4188 63.5577 9.71971 63.8486 8.95642 64.0058C8.18136 64.1609 7.38111 64.1649 6.55572 64.0176C5.71852 63.8682 4.96237 63.5866 4.28717 63.1728C3.6119 62.759 3.0375 62.2408 2.56408 61.6185C2.09246 60.9843 1.76023 60.271 1.56742 59.4787C1.37458 58.6864 1.34697 57.8441 1.48458 56.9519C1.62215 56.0596 1.90115 55.272 2.32141 54.5891C2.74174 53.9062 3.26934 53.3524 3.90424 52.9279C4.54096 52.4913 5.24095 52.1945 6.00424 52.0373C6.76754 51.8801 7.56779 51.8761 8.40492 52.0256C9.2303 52.1728 9.98654 52.4544 10.6735 52.8704C11.3487 53.2842 11.9222 53.8082 12.3938 54.4424C12.8673 55.0648 13.2004 55.7721 13.3932 56.5644C13.5861 57.3567 13.6137 58.199 13.4761 59.0912ZM12.185 58.8609C12.3336 57.8973 12.2547 57.0337 11.9484 56.27C11.6323 55.4923 11.1488 54.856 10.4982 54.361C9.83766 53.852 9.07111 53.5196 8.19858 53.364C7.31421 53.2061 6.48897 53.2546 5.72282 53.509C4.95842 53.7516 4.31579 54.187 3.7949 54.8153C3.26403 55.4297 2.92432 56.2185 2.7757 57.1822C2.62896 58.1339 2.71364 58.9987 3.0299 59.7763C3.33432 60.5519 3.81094 61.1931 4.45971 61.7C5.1103 62.195 5.87779 62.5214 6.76212 62.6792C7.63462 62.8349 8.459 62.7924 9.23512 62.552C10.0013 62.2974 10.6507 61.8571 11.1834 61.231C11.7043 60.6027 12.0383 59.8127 12.185 58.8609Z" fill="black" stroke="black" stroke-width="1.5"/>
<path d="M20.6791 38.7606C20.0696 39.7722 19.3134 40.5008 18.4099 40.9466C17.4963 41.3859 16.5261 41.5566 15.4989 41.4588C14.4779 41.3508 13.4868 40.9939 12.5259 40.388C11.5651 39.7822 10.8081 39.0369 10.2549 38.1523C9.70786 37.2575 9.42601 36.2971 9.40924 35.2714C9.3823 34.2391 9.67351 33.2172 10.2831 32.2056C10.7447 31.4392 11.2985 30.8364 11.9436 30.3974C12.5788 29.9519 13.2608 29.6628 13.9897 29.5301C14.4164 29.4524 14.8474 29.4281 15.2825 29.4572C15.7472 29.4881 15.9666 30.0064 15.7264 30.4052C15.5793 30.6491 15.2977 30.771 15.0138 30.7542C14.4067 30.7184 13.8237 30.8281 13.2656 31.083C12.5652 31.4026 11.9625 31.9815 11.4577 32.8194C10.9652 33.6369 10.7275 34.4529 10.7446 35.2674C10.7577 36.0652 10.9816 36.8056 11.4164 37.4887C11.8511 38.1717 12.4519 38.755 13.2186 39.2384C13.975 39.7154 14.7543 40.0023 15.5563 40.0991C16.3483 40.1895 17.1005 40.0647 17.8132 39.7245C18.5218 39.3676 19.1226 38.7804 19.615 37.963C20.12 37.1249 20.3547 36.3141 20.3191 35.5302C20.2904 34.8945 20.1187 34.3033 19.8042 33.7564C19.669 33.5216 19.652 33.2308 19.792 32.9987C20.034 32.5966 20.6024 32.5606 20.8346 32.9687C21.0499 33.3476 21.2215 33.7483 21.3497 34.1708C21.5614 34.8964 21.6204 35.6529 21.5271 36.44C21.4235 37.2207 21.1408 37.9942 20.6791 38.7606Z" fill="black" stroke="black" stroke-width="1.5"/>
<path d="M29.781 26.8627C29.393 27.1564 28.8311 26.9599 28.7108 26.4885L25.8484 15.2649C25.7769 14.9839 25.8805 14.6875 26.1117 14.5124L26.6783 14.0834C26.9119 13.9066 27.2289 13.8886 27.4807 14.0378L37.3983 19.9137C37.8161 20.1612 37.8495 20.7534 37.4625 21.0465C37.2408 21.2143 36.9393 21.231 36.7005 21.0887L34.2685 19.6408C34.0166 19.4908 33.6987 19.5085 33.4649 19.6855L29.5792 22.6276C29.3478 22.803 29.2442 23.1001 29.3164 23.3816L30.029 26.1507C30.0973 26.4164 29.9997 26.6971 29.781 26.8627ZM28.5836 20.555C28.7133 21.0519 29.3061 21.2576 29.7158 20.9475L31.8373 19.3411C32.2441 19.033 32.2106 18.4114 31.7731 18.1489L28.7612 16.342C28.2079 16.01 27.5306 16.5172 27.6933 17.1418L28.5836 20.555Z" fill="black" stroke="black" stroke-width="1.5"/>
<path d="M51.4328 15.0776C50.3141 15.4 49.3618 15.5102 48.5749 15.4086C47.7845 15.2954 47.1307 15.0165 46.6129 14.5721C46.288 14.2844 46.0129 13.9511 45.7884 13.5719C45.5825 13.2249 45.7946 12.7999 46.1826 12.688C46.5278 12.5885 46.88 12.7818 47.0805 13.0799C47.2596 13.3469 47.4829 13.5583 47.7504 13.7139C48.1827 13.9556 48.6912 14.0806 49.2764 14.0888C49.8729 14.0937 50.4966 14.0024 51.1472 13.8149C52.1057 13.5387 52.8141 13.1515 53.2724 12.6531C53.7269 12.1433 53.8535 11.551 53.6514 10.8768C53.5288 10.4702 53.2888 10.1858 52.9305 10.0237C52.5798 9.84696 52.1464 9.74439 51.6296 9.71661C51.1242 9.68544 50.5785 9.68475 49.9926 9.71467C49.4026 9.73318 48.8057 9.74729 48.2011 9.75737C47.6081 9.764 47.0428 9.71852 46.5051 9.62087C45.9787 9.52004 45.5192 9.3303 45.1256 9.05231C44.7404 8.75913 44.4623 8.32772 44.2914 7.75819C44.0092 6.81648 44.1331 5.94725 44.6628 5.15054C45.2042 4.3504 46.1823 3.74651 47.5975 3.33871C48.6016 3.04943 49.4765 2.96773 50.2208 3.09431C50.9621 3.20899 51.5672 3.47043 52.0366 3.87822C52.3162 4.11334 52.5499 4.37662 52.7376 4.66802C52.9574 5.01096 52.7379 5.43797 52.3468 5.55061C52.0073 5.64835 51.6574 5.46791 51.433 5.19464C51.1888 4.89779 50.8632 4.66767 50.4578 4.50353C49.8336 4.24139 49.0021 4.26 47.9636 4.55927C47.3243 4.74351 46.8242 4.95707 46.4631 5.2001C46.1019 5.44312 45.8444 5.70037 45.6904 5.97207C45.5441 6.22895 45.4641 6.47935 45.4504 6.72325C45.4481 6.96391 45.4766 7.18301 45.5361 7.38052C45.6509 7.76426 45.8818 8.03872 46.2289 8.20391C46.5841 8.35416 47.0143 8.44483 47.5194 8.47616C48.0326 8.49248 48.5881 8.48395 49.1857 8.45065C49.7833 8.41732 50.3803 8.40319 50.9769 8.40809C51.5812 8.39816 52.1486 8.44925 52.6779 8.56214C53.2162 8.65944 53.677 8.85519 54.0626 9.14813C54.4595 9.43793 54.7456 9.8731 54.9195 10.4546C55.2398 11.5243 55.0881 12.4646 54.463 13.2763C53.8351 14.076 52.8248 14.6766 51.4328 15.0776Z" fill="black" stroke="black" stroke-width="1.5"/>
<path d="M70.8989 13.1992C70.0064 13.1108 69.2033 12.8739 68.4901 12.4879C67.7762 12.1023 67.1729 11.6006 66.6808 10.9824C66.2006 10.3653 65.8455 9.67606 65.6162 8.91415C65.3869 8.14076 65.3051 7.33287 65.3693 6.49128C65.4349 5.63733 65.6376 4.85824 65.9797 4.15272C66.3211 3.44768 66.775 2.83858 67.3421 2.32496C67.9205 1.81294 68.5903 1.4373 69.3521 1.19755C70.1132 0.958203 70.9407 0.88233 71.8331 0.970593C72.7248 1.05933 73.5279 1.29623 74.2418 1.68183C74.9557 2.06744 75.5524 2.56901 76.0326 3.18606C76.5254 3.80385 76.8865 4.4937 77.1158 5.25561C77.345 6.01745 77.4276 6.82493 77.362 7.67888C77.2978 8.52055 77.0944 9.30004 76.7523 10.017C76.4102 10.7225 75.9503 11.331 75.3719 11.843C74.8055 12.3562 74.141 12.7329 73.3799 12.9722C72.6181 13.212 71.7913 13.2874 70.8989 13.1992ZM70.9995 11.8825C71.9627 11.9782 72.8062 11.8494 73.5285 11.4969C74.2633 11.1335 74.8425 10.6096 75.2665 9.92462C75.7032 9.22886 75.9555 8.43615 76.0233 7.54642C76.0926 6.6444 75.9642 5.81394 75.6389 5.0547C75.3247 4.29692 74.833 3.6728 74.1629 3.18251C73.5063 2.68114 72.6957 2.38302 71.7317 2.28767C70.7804 2.19312 69.9373 2.32754 69.2017 2.6912C68.4675 3.04257 67.8828 3.55997 67.4468 4.24377C67.0228 4.92878 66.7765 5.72206 66.7079 6.62374C66.64 7.5134 66.7625 8.3433 67.0752 9.11336C67.4006 9.87267 67.8979 10.5034 68.5672 11.0055C69.2365 11.4962 70.0475 11.7883 70.9995 11.8825Z" fill="black" stroke="black" stroke-width="1.5"/>
<path d="M87.8778 17.2901C87.5272 17.1167 87.3782 16.695 87.5428 16.3401L91.9582 6.84029C92.1189 6.49504 92.5317 6.34943 92.8728 6.51773C93.2034 6.68052 93.3432 7.0777 93.1882 7.41168L89.304 15.7684C89.1393 16.1233 89.2883 16.545 89.6389 16.7183L94.2988 19.0127C94.6128 19.168 94.7465 19.546 94.5986 19.8642C94.446 20.1925 94.0529 20.3313 93.7276 20.1713L87.8778 17.2901Z" fill="black" stroke="black" stroke-width="1.5"/>
<path d="M102.591 26.5446C102.311 26.2663 102.308 25.815 102.583 25.5321L109.796 18.0969C110.075 17.8086 110.536 17.8046 110.822 18.0877L116.136 23.3764C116.384 23.6244 116.388 24.0261 116.143 24.2781C115.895 24.5346 115.484 24.5381 115.23 24.286L110.894 19.9718C110.61 19.6883 110.15 19.6921 109.869 19.9806L108.118 21.7865C107.843 22.0694 107.847 22.5204 108.126 22.7991L111.912 26.5671C112.165 26.8182 112.169 27.2252 111.921 27.481C111.668 27.7415 111.252 27.7452 110.995 27.4891L107.233 23.7458C106.949 23.4624 106.488 23.4666 106.208 23.7547L104.443 25.5738C104.169 25.8563 104.172 26.3078 104.452 26.586L108.812 30.925C109.061 31.1729 109.064 31.5746 108.82 31.8267C108.571 32.0832 108.16 32.0866 107.907 31.8346L102.591 26.5446Z" fill="black" stroke="black" stroke-width="1.5"/>
</svg>
