<svg width="100%" height="100%" viewBox="0 0 161 166" fill="none" xmlns="http://www.w3.org/2000/svg">
<path d="M63.4331 114.203C64.4298 114.694 65.6274 114.341 66.2189 113.382C66.512 112.907 66.8386 112.455 67.1904 112.038C68.5531 110.424 73.1248 106.464 74.4937 105.288C74.9532 104.893 75.1222 104.263 74.924 103.683L74.0355 101.08C73.9406 100.803 74.0063 100.501 74.2072 100.291L75.7866 98.6358C75.9035 98.5136 76.0832 98.4813 76.2337 98.5555L76.4178 98.6464C76.7696 98.8199 77.1943 98.6689 77.3642 98.3101L77.5425 97.9336C77.7888 97.414 77.5955 96.7851 77.1029 96.5021L72.6402 93.9381C72.6123 93.9226 72.5841 93.9076 72.5558 93.8944C71.9577 93.6079 71.221 93.6503 70.6264 93.3572L70.1091 93.1021C69.7573 92.929 69.3326 93.0795 69.1627 93.4384L63.9111 104.521C62.3529 107.809 61.7601 110.725 61.5774 111.826C61.5275 112.128 61.6034 112.439 61.7857 112.68L62.5926 113.747C62.6262 113.791 62.6681 113.825 62.7153 113.848L63.4331 114.203ZM66.6709 111.582C66.297 112.025 65.9496 112.505 65.6384 113.01C65.6203 113.039 65.5779 113.023 65.5832 112.988C65.5973 112.89 65.6146 112.784 65.6344 112.669C65.7589 111.955 66.0282 110.755 66.6047 109.096C66.704 108.81 66.7163 108.506 66.64 108.218L66.4859 107.634C66.4731 107.586 66.4886 107.535 66.5137 107.491C66.5226 107.475 66.5318 107.459 66.5407 107.443C66.9958 106.648 68.1792 106.927 68.2595 107.84C68.2745 108.012 68.2419 108.185 68.1704 108.342C68.0441 108.619 67.9413 108.875 67.8614 109.113C67.5784 109.954 67.2836 110.866 66.7066 111.54C66.6943 111.554 66.6824 111.568 66.6709 111.582ZM69.8354 102.316C69.8288 102.239 69.8508 102.159 69.8937 102.094C70.0715 101.828 70.4803 101.938 70.5086 102.257L70.6586 103.962C70.675 104.15 70.6246 104.336 70.5169 104.486C70.3682 104.694 70.0371 104.606 70.0146 104.352L69.8354 102.316ZM69.4633 105.91C69.4699 105.982 69.4492 106.059 69.4099 106.12C69.2382 106.391 68.8113 106.287 68.7831 105.969L68.6246 104.163C68.6175 104.088 68.6374 104.01 68.6784 103.946C68.855 103.672 69.2757 103.779 69.3044 104.103L69.4633 105.91ZM76.7665 97.1113C76.9444 97.2137 77.0146 97.441 76.9254 97.629L76.7467 98.0055C76.7414 98.0174 76.7277 98.0223 76.7162 98.0166L76.5326 97.9256C76.1154 97.7204 75.6184 97.8095 75.2953 98.1481L73.7159 99.8029C73.3332 100.204 73.2074 100.782 73.3879 101.31L74.2765 103.913C74.3802 104.217 74.2924 104.547 74.0522 104.753C73.8819 104.899 73.6175 104.834 73.5362 104.624L73.5146 104.567C73.4449 104.388 73.2453 104.3 73.0692 104.371C72.9862 104.404 72.9231 104.468 72.8869 104.544C72.8467 104.629 72.8401 104.73 72.8768 104.825L73.0736 105.332C73.12 105.451 73.0908 105.583 72.9942 105.667C72.8353 105.805 72.5828 105.748 72.5064 105.552L72.5033 105.543C72.4336 105.364 72.2345 105.276 72.0584 105.347C71.9754 105.38 71.9123 105.443 71.8761 105.52C71.8359 105.605 71.8293 105.706 71.8659 105.801L72.0359 106.239C72.0822 106.358 72.0491 106.493 71.9533 106.577C71.937 106.591 71.9211 106.606 71.9047 106.62C71.7697 106.738 71.5574 106.687 71.4925 106.52C71.4227 106.34 71.2236 106.252 71.0475 106.323C70.9641 106.356 70.901 106.419 70.8648 106.496C70.8246 106.581 70.818 106.682 70.8546 106.776L71.0021 107.156C71.0475 107.274 71.0153 107.408 70.9208 107.492C70.8891 107.521 70.8573 107.549 70.8255 107.578C70.7134 107.678 70.5355 107.635 70.4812 107.495C70.4114 107.316 70.2124 107.228 70.0362 107.299C69.9533 107.333 69.8901 107.396 69.8539 107.472C69.8138 107.557 69.8071 107.658 69.8438 107.753L69.899 107.895C69.9886 108.126 69.9162 108.398 69.733 108.565C69.303 108.959 68.7883 108.613 69.0567 108.095C69.5233 107.196 70.2053 106.109 71.0714 104.898C71.2771 104.611 71.3733 104.256 71.3419 103.899L71.1186 101.363C71.0643 100.749 71.2254 100.135 71.5785 99.6299C71.6386 99.5438 71.6964 99.4612 71.7511 99.3831C72.1268 98.8481 72.7117 98.5127 73.2859 98.2002C73.5733 98.0435 73.8408 97.8471 74.0801 97.6144L74.2756 97.4242C74.9426 96.7754 75.9592 96.6473 76.7665 97.1113ZM72.3069 94.5489L73.361 95.1545C74.0712 95.5628 74.1939 96.537 73.6064 97.1086C73.1006 97.6008 72.4371 97.8943 71.7388 97.9349C70.8524 97.9865 70.2344 97.0698 70.6145 96.2673L71.2673 94.8901C71.3583 94.6981 71.5181 94.5569 71.7172 94.492C71.9162 94.4271 72.1268 94.4479 72.3069 94.5489ZM62.3287 112.252C62.2629 112.166 62.2351 112.053 62.2536 111.943C62.3922 111.107 62.9661 108.123 64.5282 104.826L69.7802 93.743C69.7855 93.731 69.7992 93.7262 69.8107 93.7319L70.7986 94.2192C70.81 94.2245 70.8145 94.2386 70.8092 94.2501L68.8991 98.2801C68.188 99.7808 67.5007 101.015 66.8355 102.209C66.165 103.412 65.4715 104.656 64.7507 106.178C63.6366 108.529 63.0468 110.783 62.7604 112.153C62.718 112.357 62.454 112.418 62.3287 112.252ZM63.7319 113.573C63.4401 113.429 63.2751 113.112 63.3355 112.793C63.5677 111.564 64.1469 109.059 65.3678 106.482C65.3908 106.434 65.461 106.441 65.4746 106.492L65.9779 108.4C66.0171 108.548 66.0101 108.712 65.9584 108.862C65.389 110.502 65.103 111.721 64.9595 112.543C64.8434 113.208 64.3367 113.871 63.7319 113.573Z" fill="black"/>
<path d="M101.586 59.2558C102.008 60.4458 101.485 61.7665 100.368 62.3284C99.8152 62.6069 99.2833 62.9265 98.7871 63.2783C96.8665 64.6413 92.0109 69.3832 90.5688 70.8041C90.0841 71.2812 89.3765 71.4008 88.7652 71.1086L86.0231 69.7981C85.7313 69.6586 85.3928 69.6988 85.1403 69.9027L83.1495 71.5077C83.0025 71.6264 82.9464 71.8272 83.0104 72.0073L83.0881 72.2267C83.2373 72.6465 83.0232 73.1117 82.6118 73.264L82.1792 73.4233C81.5833 73.6436 80.9181 73.3514 80.6656 72.7581L78.3778 67.3894C78.3398 67.2981 78.3102 67.2045 78.289 67.11C78.15 66.4863 78.2489 65.8048 78.0352 65.2023L77.7558 64.4149C77.6066 63.9951 77.8203 63.5299 78.2321 63.378L90.9498 58.6838C94.723 57.2912 97.978 56.953 99.2025 56.8723C99.5375 56.8502 99.869 56.972 100.111 57.2073L101.185 58.2481C101.229 58.2909 101.261 58.3426 101.281 58.3986L101.586 59.2558ZM98.3483 62.6351C98.8754 62.2608 99.4408 61.9214 100.028 61.6257C100.064 61.608 100.049 61.5586 100.009 61.5603C99.9012 61.5656 99.7838 61.5727 99.6563 61.582C98.8613 61.6416 97.5189 61.8093 95.6389 62.2732C95.3149 62.3531 94.9817 62.3323 94.6758 62.2127L94.0564 61.9704C94.0044 61.9501 93.9465 61.9616 93.8958 61.985C93.8635 62 93.8313 62.015 93.7987 62.0296C92.8668 62.4608 93.0487 63.8062 94.0564 64.0066C94.2555 64.0459 94.4617 64.0273 94.6532 63.9602C94.9984 63.8393 95.3145 63.747 95.6027 63.6839C96.4962 63.487 97.4677 63.2827 98.204 62.7398C98.2534 62.7031 98.302 62.6683 98.3483 62.6351ZM87.8669 65.1674C87.7773 65.1498 87.6802 65.1666 87.5998 65.2107C87.2842 65.3846 87.3628 65.8538 87.7164 65.9244L89.5615 66.2912C89.7645 66.3314 89.9733 66.2957 90.1504 66.1906C90.4006 66.0419 90.338 65.6587 90.0524 65.6022L87.8669 65.1674ZM91.8185 65.1546C91.9028 65.1714 91.9959 65.156 92.0718 65.1162C92.3927 64.9489 92.3239 64.4603 91.9694 64.3897L90.0254 64.0035C89.9371 63.9858 89.8436 63.9999 89.7641 64.0419C89.4388 64.214 89.5125 64.696 89.8731 64.768L91.8185 65.1546ZM81.3701 72.4461C81.4615 72.6606 81.7021 72.7661 81.9179 72.6866L82.3501 72.5268C82.3633 72.522 82.3704 72.507 82.3655 72.4937L82.2874 72.2739C82.1108 71.776 82.2658 71.2212 82.6727 70.8928L84.6635 69.2879C85.146 68.899 85.7918 68.8222 86.3489 69.0888L89.0909 70.3989C89.411 70.552 89.7818 70.4898 90.0347 70.2404C90.217 70.0608 90.1729 69.7558 89.9469 69.6357L89.8939 69.6079C89.7058 69.5077 89.6326 69.2711 89.7306 69.0791C89.7769 68.9886 89.8528 68.9242 89.9407 68.8915C90.0378 68.8557 90.1495 68.8597 90.2488 68.9127L90.7666 69.1877C90.899 69.2579 91.0566 69.2393 91.1638 69.1347C91.3316 68.9714 91.2972 68.6876 91.0901 68.5777L91.0773 68.5706C90.8888 68.4709 90.8156 68.2343 90.9136 68.0423C90.9599 67.9513 91.0363 67.8869 91.1237 67.8547C91.2212 67.8185 91.3325 67.8229 91.4318 67.8754L91.8781 68.1124C92.0096 68.1822 92.1712 68.1597 92.2789 68.0564C92.2948 68.0409 92.3106 68.0255 92.3265 68.01C92.4722 67.8701 92.4387 67.6287 92.2603 67.5338C92.0723 67.4336 91.999 67.197 92.0966 67.005C92.1429 66.9145 92.2193 66.85 92.3067 66.8178C92.4042 66.7816 92.5159 66.7856 92.6148 66.8386L92.9993 67.0425C93.1299 67.1118 93.2906 67.0897 93.3979 66.9882C93.431 66.9569 93.4641 66.9255 93.4972 66.8942C93.6199 66.7781 93.5925 66.5759 93.4433 66.4965C93.2553 66.3967 93.182 66.1601 93.28 65.9681C93.3263 65.8772 93.4027 65.8128 93.4901 65.7805C93.5877 65.7448 93.6989 65.7488 93.7982 65.8013L93.9214 65.8671C94.1774 66.0026 94.5036 65.9496 94.7164 65.7527C95.1988 65.3065 94.8629 64.6991 94.2555 64.9494C93.2204 65.3758 91.9562 66.0251 90.537 66.8681C90.1989 67.069 89.8003 67.1374 89.4145 67.0606L86.6089 66.5027C85.9834 66.3786 85.334 66.4832 84.7823 66.8024C84.6167 66.8977 84.4636 66.9869 84.3228 67.069C83.7644 67.3943 83.3786 67.9359 83.0418 68.4876C82.8228 68.8465 82.5496 69.1718 82.2296 69.4499L82.0168 69.6353C81.2143 70.3327 80.9534 71.4679 81.3701 72.4461ZM79.0836 67.0805L79.6336 68.3707C79.9876 69.2018 81.0497 69.4459 81.7312 68.8531C82.3276 68.3345 82.7248 67.6141 82.8498 66.8249C83.0073 65.8287 82.0345 65.0306 81.0881 65.3802L79.5762 65.9381C79.3559 66.0193 79.1833 66.1844 79.0893 66.4034C78.9957 66.6223 78.994 66.8642 79.0836 67.0805ZM99.5821 57.7754C99.4943 57.6906 99.3738 57.646 99.2519 57.6544C98.3223 57.7158 94.9949 58.0243 91.2111 59.4209L78.4939 64.1147C78.4802 64.1196 78.4736 64.1346 78.4784 64.1483L78.8973 65.3286C78.9017 65.3418 78.9167 65.348 78.9295 65.3431L83.5543 63.6362C85.2762 63.0006 86.7042 62.361 88.085 61.7426C89.4776 61.1189 90.9175 60.4736 92.6638 59.8292C95.3564 58.8352 97.8835 58.4247 99.4144 58.2561C99.6496 58.23 99.752 57.94 99.5821 57.7754ZM100.863 59.5229C100.74 59.1759 100.403 58.9513 100.036 58.9844C98.6591 59.1084 95.868 59.48 92.9251 60.5663C92.8686 60.5871 92.8682 60.667 92.9242 60.6886L94.9508 61.4809C95.1083 61.5427 95.2884 61.5533 95.4584 61.5114C97.2845 61.0607 98.6348 60.8749 99.549 60.8038C100.314 60.7442 101.12 60.2463 100.863 59.5229Z" fill="black"/>
<path d="M136.566 108.87L152.536 109.92C154.599 110.055 156.22 111.728 156.024 114.72C155.869 117.072 152.797 118.762 150.641 118.125L135.872 112.634C134.991 112.287 134.366 111.578 134.435 110.524C134.505 109.471 135.535 108.802 136.566 108.87Z" fill="#20681F"/>
<path d="M24.5654 108.87L8.59597 109.92C6.53246 110.055 4.91121 111.728 5.10798 114.72C5.26293 117.072 8.33466 118.762 10.4903 118.125L25.2593 112.634C26.1406 112.287 26.7659 111.578 26.6967 110.524C26.627 109.471 25.5968 108.802 24.5654 108.87Z" fill="#20681F"/>
<path d="M79.4752 86.201C79.4752 85.7362 79.8439 85.3673 80.2873 85.3673C80.7312 85.3673 81.0998 85.7363 81.0998 86.201C81.0998 86.666 80.7312 87.0346 80.2873 87.0346C79.8438 87.0346 79.4752 86.6661 79.4752 86.201Z" stroke="black" stroke-width="0.5"/>
<path d="M7.75403 86.9258C7.75403 86.2111 8.33411 85.6309 9.04899 85.6309C9.76385 85.6309 10.3439 86.2111 10.3439 86.9258C10.3439 87.6404 9.76386 88.2206 9.04899 88.2206C8.3341 88.2206 7.75403 87.6404 7.75403 86.9258Z" stroke="black" stroke-width="0.5"/>
<path d="M150.979 86.9258C150.979 86.2111 151.559 85.6309 152.274 85.6309C152.988 85.6309 153.569 86.2112 153.569 86.9258C153.569 87.6403 152.988 88.2206 152.274 88.2206C151.559 88.2206 150.979 87.6404 150.979 86.9258Z" stroke="black" stroke-width="0.5"/>
<path d="M48.1922 129.229C49.5972 128.708 51.2312 129.067 51.7522 130.405C52.2733 131.742 51.9724 132.739 50.8501 133.557L33.6563 146.237C31.1151 147.871 26.5481 146.782 25.4287 143.909C24.3096 141.037 25.4561 137.678 27.9995 136.732L48.1922 129.229Z" fill="black"/>
<path d="M80.499 133C82.4456 133 84.0628 134.651 84.2254 136.764L87.7411 156.103C87.9108 156.808 87.9977 157.536 88 158.267C88 162.829 84.6474 166 80.499 166C76.3509 166 73 162.829 73 158.267C73.0034 157.659 73.0662 157.054 73.1869 156.463L76.8429 136.231C77.0466 135.303 77.5177 134.48 78.1807 133.894C78.8436 133.309 79.6603 132.994 80.499 133Z" fill="#F2994A"/>
<path d="M112.271 129.547L130.779 142.055C133.17 143.671 133.93 146.759 131.555 150.093C129.688 152.715 124.776 152.506 122.631 150.243L108.745 133.426C107.929 132.401 107.683 131.135 108.519 129.961C109.355 128.787 111.076 128.738 112.271 129.547Z" fill="#FF533D"/>
<path d="M15.5888 68.7161C15.4573 69.1632 14.9856 69.4166 14.5403 69.2789L2.36198 65.519C1.90049 65.3765 1.63917 64.8896 1.7755 64.4261L3.52422 58.4827C3.95207 57.0288 4.68155 55.9941 5.71262 55.3793C6.74787 54.7503 7.92659 54.6399 9.24876 55.0482C10.1395 55.3232 10.7969 55.7205 11.2208 56.24C11.6491 56.7458 11.9247 57.3051 12.0478 57.9186C12.0787 58.0903 12.104 58.2607 12.1238 58.4293C12.1948 59.0362 12.7831 59.4966 13.3682 59.3209L17.3729 58.1199C18.0022 57.9314 18.59 58.5158 18.4045 59.1461C18.3243 59.4194 18.1095 59.6317 17.8359 59.7089L12.4353 61.2366C12.1434 61.3191 11.9143 61.5456 11.8287 61.8369L10.7649 65.4519C10.6286 65.9154 10.89 66.4023 11.3514 66.5448L15.0335 67.6814C15.4705 67.8165 15.7179 68.2773 15.5888 68.7161ZM8.18199 65.5663C8.65223 65.7115 9.15046 65.444 9.28937 64.9717L10.4778 60.9329C10.6288 60.4196 10.7053 59.8758 10.7074 59.3011C10.7095 58.7259 10.5682 58.2002 10.2834 57.7235C9.9888 57.2283 9.48664 56.8712 8.77684 56.6518C7.90006 56.3812 7.12096 56.4753 6.43954 56.9334C5.74422 57.3876 5.24763 58.1208 4.9498 59.1329L3.72963 63.2798C3.5933 63.7433 3.8546 64.2302 4.31611 64.3727L8.18199 65.5663Z" fill="black"/>
<path d="M28.767 41.0095C28.0811 41.8775 27.3077 42.5486 26.4469 43.0226C25.5862 43.4966 24.6845 43.7739 23.7419 43.8544C22.8085 43.9233 21.8875 43.8109 20.9788 43.5172C20.0588 43.2142 19.2033 42.7348 18.4124 42.079C17.6102 41.4138 16.9743 40.6566 16.5046 39.8074C16.0348 38.9582 15.7356 38.0587 15.607 37.1092C15.4875 36.1481 15.5644 35.1869 15.8377 34.2257C16.1109 33.2646 16.5905 32.35 17.2764 31.482C17.9623 30.6139 18.7357 29.9429 19.5964 29.4689C20.4572 28.9949 21.3543 28.7234 22.2877 28.6545C23.2303 28.5739 24.1559 28.6805 25.0646 28.9742C25.9733 29.2679 26.8288 29.7473 27.6309 30.4125C28.4218 31.0683 29.0578 31.8255 29.5388 32.6841C30.0085 33.5333 30.3032 34.4385 30.4226 35.3996C30.5513 36.3492 30.479 37.3045 30.2057 38.2657C29.9325 39.2269 29.4529 40.1415 28.767 41.0095ZM27.5298 39.9837C28.2706 39.0462 28.7084 38.0779 28.8434 37.0787C28.9763 36.0586 28.8455 35.0881 28.4511 34.1672C28.0545 33.2254 27.4382 32.4078 26.6021 31.7146C25.7547 31.0119 24.8457 30.5648 23.8752 30.373C22.9137 30.1697 21.9655 30.2455 21.0305 30.6005C20.0933 30.9346 19.2544 31.5703 18.5136 32.5078C17.782 33.4337 17.3497 34.4067 17.2169 35.4268C17.0727 36.4376 17.1933 37.4092 17.5786 38.3416C17.973 39.2625 18.5939 40.0743 19.4413 40.7769C20.2773 41.4702 21.1818 41.9231 22.1545 42.1358C23.1251 42.3275 24.0835 42.2506 25.0298 41.905C25.9648 41.55 26.7982 40.9096 27.5298 39.9837Z" fill="black"/>
<path d="M48.7321 23.6892C47.471 24.3993 46.2245 24.719 44.992 24.6482C43.7525 24.5644 42.6151 24.16 41.5792 23.435C40.556 22.7028 39.7152 21.7234 39.057 20.4968C38.3988 19.2703 38.0422 18.0183 37.9871 16.741C37.9447 15.4565 38.2246 14.2624 38.8266 13.1588C39.4217 12.0421 40.3497 11.1287 41.6109 10.4186C42.5662 9.88061 43.5208 9.5726 44.4738 9.49456C45.4202 9.40346 46.322 9.50741 47.1792 9.80641C47.6811 9.98151 48.1552 10.216 48.6015 10.51C49.0782 10.8238 48.9988 11.5089 48.5017 11.7889C48.1976 11.96 47.8237 11.9198 47.5311 11.7303C46.9056 11.3253 46.2178 11.0899 45.4688 11.0243C44.529 10.9418 43.5367 11.1947 42.4922 11.7828C41.4731 12.3567 40.7266 13.0829 40.2526 13.9615C39.7844 14.8199 39.5756 15.7446 39.6263 16.7355C39.677 17.7264 39.9649 18.7112 40.4901 19.6899C41.0082 20.6555 41.6656 21.4323 42.4621 22.0202C43.2517 22.5952 44.1291 22.9167 45.0944 22.9847C46.0655 23.0326 47.0609 22.7696 48.0797 22.1958C49.1246 21.6076 49.8648 20.885 50.3005 20.0279C50.6541 19.3328 50.8284 18.5988 50.8236 17.8258C50.8214 17.4938 50.979 17.1735 51.2685 17.0106C51.7695 16.7283 52.3972 17.0334 52.3981 17.6087C52.3986 18.1428 52.3394 18.6737 52.2207 19.2015C52.0079 20.103 51.6137 20.9451 51.0385 21.7278C50.4563 22.4974 49.6874 23.1512 48.7321 23.6892Z" fill="black"/>
<path d="M65.6253 16.506C65.0342 16.5847 64.5539 16.0356 64.7106 15.4604L68.4419 1.76572C68.5355 1.42297 68.8251 1.16959 69.1773 1.12271L70.0407 1.00775C70.3965 0.960419 70.7453 1.13285 70.9236 1.44403L77.9452 13.7016C78.241 14.2179 77.9187 14.8693 77.329 14.9479C76.9913 14.9928 76.6598 14.8285 76.4912 14.5324L74.7736 11.5192C74.5957 11.207 74.2461 11.0338 73.8899 11.0812L67.9696 11.8694C67.6169 11.9164 67.3269 12.1706 67.2338 12.5143L66.32 15.897C66.2322 16.2215 65.9585 16.4617 65.6253 16.506ZM68.1608 9.05825C67.9988 9.66628 68.5064 10.2438 69.1305 10.1608L72.363 9.73041C72.9828 9.64787 73.3227 8.96494 73.015 8.42074L70.8962 4.6743C70.5069 3.98599 69.4784 4.11738 69.2744 4.88149L68.1608 9.05825Z" fill="black"/>
<path d="M95.8291 17.0276C94.4418 16.6952 93.3599 16.2372 92.5825 15.6533C91.8083 15.055 91.2799 14.3625 90.9965 13.5759C90.8239 13.0728 90.7321 12.5513 90.7219 12.0114C90.7122 11.517 91.1951 11.1921 91.6763 11.3073C92.1045 11.4099 92.3631 11.8288 92.3967 12.2677C92.4263 12.6606 92.5366 13.0209 92.7277 13.3485C93.0425 13.8673 93.509 14.3079 94.1279 14.6703C94.7609 15.036 95.4809 15.3156 96.2878 15.5089C97.4765 15.7937 98.4657 15.809 99.2554 15.5547C100.048 15.2859 100.541 14.731 100.733 13.8901C100.848 13.3826 100.764 12.9343 100.48 12.545C100.213 12.1447 99.8129 11.7734 99.2788 11.4315C98.7588 11.0928 98.1775 10.7623 97.5348 10.4401C96.8947 10.1033 96.2498 9.75759 95.5992 9.40297C94.9631 9.05171 94.3879 8.66156 93.8737 8.23252C93.3735 7.80692 92.9983 7.32695 92.7467 6.79273C92.5132 6.24738 92.4775 5.61945 92.6395 4.90902C92.9078 3.7346 93.5651 2.88279 94.6113 2.3536C95.672 1.8278 97.0797 1.77516 98.8348 2.19567C100.08 2.49409 101.062 2.93569 101.779 3.52046C102.5 4.09073 102.987 4.73507 103.241 5.45349C103.397 5.87312 103.487 6.29501 103.511 6.7191C103.538 7.21748 103.046 7.54006 102.561 7.42379C102.14 7.3228 101.876 6.91897 101.802 6.49209C101.721 6.02801 101.513 5.58595 101.18 5.16596C100.673 4.50929 99.7754 4.02665 98.4874 3.71806C97.6946 3.52815 97.0324 3.45359 96.5005 3.49439C95.9686 3.53519 95.5387 3.65385 95.2103 3.8504C94.8991 4.03584 94.6625 4.25444 94.5005 4.50616C94.3526 4.76133 94.2506 5.01213 94.1946 5.25861C94.0851 5.73708 94.1654 6.16921 94.4356 6.55508C94.7234 6.92987 95.1273 7.28656 95.6468 7.6252C96.184 7.95272 96.7813 8.27931 97.4385 8.60497C98.0958 8.93063 98.7407 9.27633 99.3737 9.64207C100.024 9.99674 100.598 10.3941 101.094 10.8343C101.609 11.2633 101.982 11.7505 102.216 12.2958C102.464 12.8446 102.506 13.4814 102.34 14.2064C102.035 15.5403 101.305 16.451 100.148 16.9386C98.9954 17.4116 97.5555 17.4413 95.8291 17.0276Z" fill="black"/>
<path d="M117.716 26.789C116.818 26.1555 116.105 25.4176 115.578 24.5751C115.05 23.7326 114.71 22.8331 114.559 21.8767C114.42 20.9287 114.458 19.9793 114.674 19.0285C114.897 18.0655 115.298 17.1548 115.875 16.2964C116.461 15.4257 117.148 14.7177 117.939 14.1723C118.729 13.627 119.581 13.252 120.496 13.0472C121.422 12.8509 122.363 12.8552 123.32 13.06C124.276 13.2648 125.204 13.684 126.102 14.3174C126.999 14.9509 127.712 15.6888 128.24 16.5313C128.768 17.3738 129.101 18.2691 129.24 19.2171C129.392 20.1735 129.36 21.1271 129.144 22.0779C128.928 23.0286 128.528 23.9393 127.942 24.81C127.365 25.6685 126.677 26.3765 125.879 26.9341C125.088 27.4794 124.23 27.8502 123.304 28.0465C122.39 28.2513 121.454 28.2512 120.498 28.0464C119.541 27.8416 118.614 27.4224 117.716 26.789ZM118.619 25.4462C119.588 26.1303 120.565 26.5027 121.548 26.5634C122.551 26.6202 123.485 26.4117 124.351 25.9377C125.237 25.4599 125.985 24.7673 126.595 23.8598C127.214 22.9401 127.579 21.9772 127.691 20.9712C127.814 19.9735 127.667 19.011 127.249 18.0834C126.852 17.1521 126.168 16.3444 125.198 15.6602C124.241 14.9845 123.261 14.6183 122.257 14.5614C121.262 14.4923 120.326 14.6905 119.448 15.156C118.582 15.63 117.84 16.3268 117.222 17.2466C116.612 18.154 116.241 19.1127 116.109 20.1226C115.997 21.1287 116.146 22.1016 116.556 23.0414C116.973 23.9689 117.661 24.7705 118.619 25.4462Z" fill="black"/>
<path d="M133.344 41.411C133.075 41.0143 133.171 40.4747 133.561 40.1959L144.009 32.737C144.389 32.4661 144.917 32.5603 145.179 32.9459C145.433 33.3192 145.342 33.8271 144.975 34.0895L135.784 40.6507C135.394 40.9295 135.298 41.4691 135.567 41.8658L139.148 47.1278C139.389 47.4831 139.303 47.9669 138.953 48.2167C138.592 48.4745 138.089 48.3849 137.839 48.0177L133.344 41.411Z" fill="black"/>
<path d="M143.436 60.1684C143.306 59.7027 143.575 59.2194 144.039 59.0839L156.222 55.517C156.694 55.3784 157.188 55.6529 157.321 56.127L159.79 64.9765C159.905 65.391 159.666 65.8214 159.253 65.9423C158.833 66.0655 158.393 65.8209 158.275 65.399L156.26 58.1795C156.128 57.7054 155.635 57.4313 155.162 57.5695L152.203 58.4359C151.739 58.5714 151.471 59.0548 151.6 59.5204L153.359 65.8253C153.477 66.246 153.235 66.6821 152.816 66.8048C152.389 66.9297 151.943 66.6821 151.824 66.2539L150.076 59.9901C149.944 59.516 149.45 59.2419 148.978 59.3801L145.997 60.2527C145.534 60.3882 145.265 60.8716 145.395 61.3372L147.421 68.5978C147.536 69.0122 147.297 69.4426 146.884 69.5635C146.464 69.6867 146.024 69.4421 145.906 69.0202L143.436 60.1684Z" fill="black"/>
<path d="M15.5888 68.7161C15.4573 69.1632 14.9856 69.4166 14.5403 69.2789L2.36198 65.519C1.90049 65.3765 1.63917 64.8896 1.7755 64.4261L3.52422 58.4827C3.95207 57.0288 4.68155 55.9941 5.71262 55.3793C6.74787 54.7503 7.92659 54.6399 9.24876 55.0482C10.1395 55.3232 10.7969 55.7205 11.2208 56.24C11.6491 56.7458 11.9247 57.3051 12.0478 57.9186C12.0787 58.0903 12.104 58.2607 12.1238 58.4293C12.1948 59.0362 12.7831 59.4966 13.3682 59.3209L17.3729 58.1199C18.0022 57.9314 18.59 58.5158 18.4045 59.1461C18.3243 59.4194 18.1095 59.6317 17.8359 59.7089L12.4353 61.2366C12.1434 61.3191 11.9143 61.5456 11.8287 61.8369L10.7649 65.4519C10.6286 65.9154 10.89 66.4023 11.3514 66.5448L15.0335 67.6814C15.4705 67.8165 15.7179 68.2773 15.5888 68.7161ZM8.18199 65.5663C8.65223 65.7115 9.15046 65.444 9.28937 64.9717L10.4778 60.9329C10.6288 60.4196 10.7053 59.8758 10.7074 59.3011C10.7095 58.7259 10.5682 58.2002 10.2834 57.7235C9.9888 57.2283 9.48664 56.8712 8.77684 56.6518C7.90006 56.3812 7.12096 56.4753 6.43954 56.9334C5.74422 57.3876 5.24763 58.1208 4.9498 59.1329L3.72963 63.2798C3.5933 63.7433 3.8546 64.2302 4.31611 64.3727L8.18199 65.5663Z" fill="black"/>
<path d="M28.767 41.0095C28.0811 41.8775 27.3077 42.5486 26.4469 43.0226C25.5862 43.4966 24.6845 43.7739 23.7419 43.8544C22.8085 43.9233 21.8875 43.8109 20.9788 43.5172C20.0588 43.2142 19.2033 42.7348 18.4124 42.079C17.6102 41.4138 16.9743 40.6566 16.5046 39.8074C16.0348 38.9582 15.7356 38.0587 15.607 37.1092C15.4875 36.1481 15.5644 35.1869 15.8377 34.2257C16.1109 33.2646 16.5905 32.35 17.2764 31.482C17.9623 30.6139 18.7357 29.9429 19.5964 29.4689C20.4572 28.9949 21.3543 28.7234 22.2877 28.6545C23.2303 28.5739 24.1559 28.6805 25.0646 28.9742C25.9733 29.2679 26.8288 29.7473 27.6309 30.4125C28.4218 31.0683 29.0578 31.8255 29.5388 32.6841C30.0085 33.5333 30.3032 34.4385 30.4226 35.3996C30.5513 36.3492 30.479 37.3045 30.2057 38.2657C29.9325 39.2269 29.4529 40.1415 28.767 41.0095ZM27.5298 39.9837C28.2706 39.0462 28.7084 38.0779 28.8434 37.0787C28.9763 36.0586 28.8455 35.0881 28.4511 34.1672C28.0545 33.2254 27.4382 32.4078 26.6021 31.7146C25.7547 31.0119 24.8457 30.5648 23.8752 30.373C22.9137 30.1697 21.9655 30.2455 21.0305 30.6005C20.0933 30.9346 19.2544 31.5703 18.5136 32.5078C17.782 33.4337 17.3497 34.4067 17.2169 35.4268C17.0727 36.4376 17.1933 37.4092 17.5786 38.3416C17.973 39.2625 18.5939 40.0743 19.4413 40.7769C20.2773 41.4702 21.1818 41.9231 22.1545 42.1358C23.1251 42.3275 24.0835 42.2506 25.0298 41.905C25.9648 41.55 26.7982 40.9096 27.5298 39.9837Z" fill="black"/>
<path d="M48.7321 23.6892C47.471 24.3993 46.2245 24.719 44.992 24.6482C43.7525 24.5644 42.6151 24.16 41.5792 23.435C40.556 22.7028 39.7152 21.7234 39.057 20.4968C38.3988 19.2703 38.0422 18.0183 37.9871 16.741C37.9447 15.4565 38.2246 14.2624 38.8266 13.1588C39.4217 12.0421 40.3497 11.1287 41.6109 10.4186C42.5662 9.88061 43.5208 9.5726 44.4738 9.49456C45.4202 9.40346 46.322 9.50741 47.1792 9.80641C47.6811 9.98151 48.1552 10.216 48.6015 10.51C49.0782 10.8238 48.9988 11.5089 48.5017 11.7889C48.1976 11.96 47.8237 11.9198 47.5311 11.7303C46.9056 11.3253 46.2178 11.0899 45.4688 11.0243C44.529 10.9418 43.5367 11.1947 42.4922 11.7828C41.4731 12.3567 40.7266 13.0829 40.2526 13.9615C39.7844 14.8199 39.5756 15.7446 39.6263 16.7355C39.677 17.7264 39.9649 18.7112 40.4901 19.6899C41.0082 20.6555 41.6656 21.4323 42.4621 22.0202C43.2517 22.5952 44.1291 22.9167 45.0944 22.9847C46.0655 23.0326 47.0609 22.7696 48.0797 22.1958C49.1246 21.6076 49.8648 20.885 50.3005 20.0279C50.6541 19.3328 50.8284 18.5988 50.8236 17.8258C50.8214 17.4938 50.979 17.1735 51.2685 17.0106C51.7695 16.7283 52.3972 17.0334 52.3981 17.6087C52.3986 18.1428 52.3394 18.6737 52.2207 19.2015C52.0079 20.103 51.6137 20.9451 51.0385 21.7278C50.4563 22.4974 49.6874 23.1512 48.7321 23.6892Z" fill="black"/>
<path d="M65.6253 16.506C65.0342 16.5847 64.5539 16.0356 64.7106 15.4604L68.4419 1.76572C68.5355 1.42297 68.8251 1.16959 69.1773 1.12271L70.0407 1.00775C70.3965 0.960419 70.7453 1.13285 70.9236 1.44403L77.9452 13.7016C78.241 14.2179 77.9187 14.8693 77.329 14.9479C76.9913 14.9928 76.6598 14.8285 76.4912 14.5324L74.7736 11.5192C74.5957 11.207 74.2461 11.0338 73.8899 11.0812L67.9696 11.8694C67.6169 11.9164 67.3269 12.1706 67.2338 12.5143L66.32 15.897C66.2322 16.2215 65.9585 16.4617 65.6253 16.506ZM68.1608 9.05825C67.9988 9.66628 68.5064 10.2438 69.1305 10.1608L72.363 9.73041C72.9828 9.64787 73.3227 8.96494 73.015 8.42074L70.8962 4.6743C70.5069 3.98599 69.4784 4.11738 69.2744 4.88149L68.1608 9.05825Z" fill="black"/>
<path d="M95.8291 17.0276C94.4418 16.6952 93.3599 16.2372 92.5825 15.6533C91.8083 15.055 91.2799 14.3625 90.9965 13.5759C90.8239 13.0728 90.7321 12.5513 90.7219 12.0114C90.7122 11.517 91.1951 11.1921 91.6763 11.3073C92.1045 11.4099 92.3631 11.8288 92.3967 12.2677C92.4263 12.6606 92.5366 13.0209 92.7277 13.3485C93.0425 13.8673 93.509 14.3079 94.1279 14.6703C94.7609 15.036 95.4809 15.3156 96.2878 15.5089C97.4765 15.7937 98.4657 15.809 99.2554 15.5547C100.048 15.2859 100.541 14.731 100.733 13.8901C100.848 13.3826 100.764 12.9343 100.48 12.545C100.213 12.1447 99.8129 11.7734 99.2788 11.4315C98.7588 11.0928 98.1775 10.7623 97.5348 10.4401C96.8947 10.1033 96.2498 9.75759 95.5992 9.40297C94.9631 9.05171 94.3879 8.66156 93.8737 8.23252C93.3735 7.80692 92.9983 7.32695 92.7467 6.79273C92.5132 6.24738 92.4775 5.61945 92.6395 4.90902C92.9078 3.7346 93.5651 2.88279 94.6113 2.3536C95.672 1.8278 97.0797 1.77516 98.8348 2.19567C100.08 2.49409 101.062 2.93569 101.779 3.52046C102.5 4.09073 102.987 4.73507 103.241 5.45349C103.397 5.87312 103.487 6.29501 103.511 6.7191C103.538 7.21748 103.046 7.54006 102.561 7.42379C102.14 7.3228 101.876 6.91897 101.802 6.49209C101.721 6.02801 101.513 5.58595 101.18 5.16596C100.673 4.50929 99.7754 4.02665 98.4874 3.71806C97.6946 3.52815 97.0324 3.45359 96.5005 3.49439C95.9686 3.53519 95.5387 3.65385 95.2103 3.8504C94.8991 4.03584 94.6625 4.25444 94.5005 4.50616C94.3526 4.76133 94.2506 5.01213 94.1946 5.25861C94.0851 5.73708 94.1654 6.16921 94.4356 6.55508C94.7234 6.92987 95.1273 7.28656 95.6468 7.6252C96.184 7.95272 96.7813 8.27931 97.4385 8.60497C98.0958 8.93063 98.7407 9.27633 99.3737 9.64207C100.024 9.99674 100.598 10.3941 101.094 10.8343C101.609 11.2633 101.982 11.7505 102.216 12.2958C102.464 12.8446 102.506 13.4814 102.34 14.2064C102.035 15.5403 101.305 16.451 100.148 16.9386C98.9954 17.4116 97.5555 17.4413 95.8291 17.0276Z" fill="black"/>
<path d="M117.716 26.789C116.818 26.1555 116.105 25.4176 115.578 24.5751C115.05 23.7326 114.71 22.8331 114.559 21.8767C114.42 20.9287 114.458 19.9793 114.674 19.0285C114.897 18.0655 115.298 17.1548 115.875 16.2964C116.461 15.4257 117.148 14.7177 117.939 14.1723C118.729 13.627 119.581 13.252 120.496 13.0472C121.422 12.8509 122.363 12.8552 123.32 13.06C124.276 13.2648 125.204 13.684 126.102 14.3174C126.999 14.9509 127.712 15.6888 128.24 16.5313C128.768 17.3738 129.101 18.2691 129.24 19.2171C129.392 20.1735 129.36 21.1271 129.144 22.0779C128.928 23.0286 128.528 23.9393 127.942 24.81C127.365 25.6685 126.677 26.3765 125.879 26.9341C125.088 27.4794 124.23 27.8502 123.304 28.0465C122.39 28.2513 121.454 28.2512 120.498 28.0464C119.541 27.8416 118.614 27.4224 117.716 26.789ZM118.619 25.4462C119.588 26.1303 120.565 26.5027 121.548 26.5634C122.551 26.6202 123.485 26.4117 124.351 25.9377C125.237 25.4599 125.985 24.7673 126.595 23.8598C127.214 22.9401 127.579 21.9772 127.691 20.9712C127.814 19.9735 127.667 19.011 127.249 18.0834C126.852 17.1521 126.168 16.3444 125.198 15.6602C124.241 14.9845 123.261 14.6183 122.257 14.5614C121.262 14.4923 120.326 14.6905 119.448 15.156C118.582 15.63 117.84 16.3268 117.222 17.2466C116.612 18.154 116.241 19.1127 116.109 20.1226C115.997 21.1287 116.146 22.1016 116.556 23.0414C116.973 23.9689 117.661 24.7705 118.619 25.4462Z" fill="black"/>
<path d="M133.344 41.411C133.075 41.0143 133.171 40.4747 133.561 40.1959L144.009 32.737C144.389 32.4661 144.917 32.5603 145.179 32.9459C145.433 33.3192 145.342 33.8271 144.975 34.0895L135.784 40.6507C135.394 40.9295 135.298 41.4691 135.567 41.8658L139.148 47.1278C139.389 47.4831 139.303 47.9669 138.953 48.2167C138.592 48.4745 138.089 48.3849 137.839 48.0177L133.344 41.411Z" fill="black"/>
<path d="M143.436 60.1684C143.306 59.7027 143.575 59.2194 144.039 59.0839L156.222 55.517C156.694 55.3784 157.188 55.6529 157.321 56.127L159.79 64.9765C159.905 65.391 159.666 65.8214 159.253 65.9423C158.833 66.0655 158.393 65.8209 158.275 65.399L156.26 58.1795C156.128 57.7054 155.635 57.4313 155.162 57.5695L152.203 58.4359C151.739 58.5714 151.471 59.0548 151.6 59.5204L153.359 65.8253C153.477 66.246 153.235 66.6821 152.816 66.8048C152.389 66.9297 151.943 66.6821 151.824 66.2539L150.076 59.9901C149.944 59.516 149.45 59.2419 148.978 59.3801L145.997 60.2527C145.534 60.3882 145.265 60.8716 145.395 61.3372L147.421 68.5978C147.536 69.0122 147.297 69.4426 146.884 69.5635C146.464 69.6867 146.024 69.4421 145.906 69.0202L143.436 60.1684Z" fill="black"/>
<path d="M15.5888 68.7161C15.4573 69.1632 14.9856 69.4166 14.5403 69.2789L2.36198 65.519C1.90049 65.3765 1.63917 64.8896 1.7755 64.4261L3.52422 58.4827C3.95207 57.0288 4.68155 55.9941 5.71262 55.3793C6.74787 54.7503 7.92659 54.6399 9.24876 55.0482C10.1395 55.3232 10.7969 55.7205 11.2208 56.24C11.6491 56.7458 11.9247 57.3051 12.0478 57.9186C12.0787 58.0903 12.104 58.2607 12.1238 58.4293C12.1948 59.0362 12.7831 59.4966 13.3682 59.3209L17.3729 58.1199C18.0022 57.9314 18.59 58.5158 18.4045 59.1461C18.3243 59.4194 18.1095 59.6317 17.8359 59.7089L12.4353 61.2366C12.1434 61.3191 11.9143 61.5456 11.8287 61.8369L10.7649 65.4519C10.6286 65.9154 10.89 66.4023 11.3514 66.5448L15.0335 67.6814C15.4705 67.8165 15.7179 68.2773 15.5888 68.7161ZM8.18199 65.5663C8.65223 65.7115 9.15046 65.444 9.28937 64.9717L10.4778 60.9329C10.6288 60.4196 10.7053 59.8758 10.7074 59.3011C10.7095 58.7259 10.5682 58.2002 10.2834 57.7235C9.9888 57.2283 9.48664 56.8712 8.77684 56.6518C7.90006 56.3812 7.12096 56.4753 6.43954 56.9334C5.74422 57.3876 5.24763 58.1208 4.9498 59.1329L3.72963 63.2798C3.5933 63.7433 3.8546 64.2302 4.31611 64.3727L8.18199 65.5663Z" fill="black" stroke="black" stroke-width="1.5"/>
<path d="M28.767 41.0095C28.0811 41.8775 27.3077 42.5486 26.4469 43.0226C25.5862 43.4966 24.6845 43.7739 23.7419 43.8544C22.8085 43.9233 21.8875 43.8109 20.9788 43.5172C20.0588 43.2142 19.2033 42.7348 18.4124 42.079C17.6102 41.4138 16.9743 40.6566 16.5046 39.8074C16.0348 38.9582 15.7356 38.0587 15.607 37.1092C15.4875 36.1481 15.5644 35.1869 15.8377 34.2257C16.1109 33.2646 16.5905 32.35 17.2764 31.482C17.9623 30.6139 18.7357 29.9429 19.5964 29.4689C20.4572 28.9949 21.3543 28.7234 22.2877 28.6545C23.2303 28.5739 24.1559 28.6805 25.0646 28.9742C25.9733 29.2679 26.8288 29.7473 27.6309 30.4125C28.4218 31.0683 29.0578 31.8255 29.5388 32.6841C30.0085 33.5333 30.3032 34.4385 30.4226 35.3996C30.5513 36.3492 30.479 37.3045 30.2057 38.2657C29.9325 39.2269 29.4529 40.1415 28.767 41.0095ZM27.5298 39.9837C28.2706 39.0462 28.7084 38.0779 28.8434 37.0787C28.9763 36.0586 28.8455 35.0881 28.4511 34.1672C28.0545 33.2254 27.4382 32.4078 26.6021 31.7146C25.7547 31.0119 24.8457 30.5648 23.8752 30.373C22.9137 30.1697 21.9655 30.2455 21.0305 30.6005C20.0933 30.9346 19.2544 31.5703 18.5136 32.5078C17.782 33.4337 17.3497 34.4067 17.2169 35.4268C17.0727 36.4376 17.1933 37.4092 17.5786 38.3416C17.973 39.2625 18.5939 40.0743 19.4413 40.7769C20.2773 41.4702 21.1818 41.9231 22.1545 42.1358C23.1251 42.3275 24.0835 42.2506 25.0298 41.905C25.9648 41.55 26.7982 40.9096 27.5298 39.9837Z" fill="black" stroke="black" stroke-width="1.5"/>
<path d="M48.7321 23.6892C47.471 24.3993 46.2245 24.719 44.992 24.6482C43.7525 24.5644 42.6151 24.16 41.5792 23.435C40.556 22.7028 39.7152 21.7234 39.057 20.4968C38.3988 19.2703 38.0422 18.0183 37.9871 16.741C37.9447 15.4565 38.2246 14.2624 38.8266 13.1588C39.4217 12.0421 40.3497 11.1287 41.6109 10.4186C42.5662 9.88061 43.5208 9.5726 44.4738 9.49456C45.4202 9.40346 46.322 9.50741 47.1792 9.80641C47.6811 9.98151 48.1552 10.216 48.6015 10.51C49.0782 10.8238 48.9988 11.5089 48.5017 11.7889C48.1976 11.96 47.8237 11.9198 47.5311 11.7303C46.9056 11.3253 46.2178 11.0899 45.4688 11.0243C44.529 10.9418 43.5367 11.1947 42.4922 11.7828C41.4731 12.3567 40.7266 13.0829 40.2526 13.9615C39.7844 14.8199 39.5756 15.7446 39.6263 16.7355C39.677 17.7264 39.9649 18.7112 40.4901 19.6899C41.0082 20.6555 41.6656 21.4323 42.4621 22.0202C43.2517 22.5952 44.1291 22.9167 45.0944 22.9847C46.0655 23.0326 47.0609 22.7696 48.0797 22.1958C49.1246 21.6076 49.8648 20.885 50.3005 20.0279C50.6541 19.3328 50.8284 18.5988 50.8236 17.8258C50.8214 17.4938 50.979 17.1735 51.2685 17.0106C51.7695 16.7283 52.3972 17.0334 52.3981 17.6087C52.3986 18.1428 52.3394 18.6737 52.2207 19.2015C52.0079 20.103 51.6137 20.9451 51.0385 21.7278C50.4563 22.4974 49.6874 23.1512 48.7321 23.6892Z" fill="black" stroke="black" stroke-width="1.5"/>
<path d="M65.6253 16.506C65.0342 16.5847 64.5539 16.0356 64.7106 15.4604L68.4419 1.76572C68.5355 1.42297 68.8251 1.16959 69.1773 1.12271L70.0407 1.00775C70.3965 0.960419 70.7453 1.13285 70.9236 1.44403L77.9452 13.7016C78.241 14.2179 77.9187 14.8693 77.329 14.9479C76.9913 14.9928 76.6598 14.8285 76.4912 14.5324L74.7736 11.5192C74.5957 11.207 74.2461 11.0338 73.8899 11.0812L67.9696 11.8694C67.6169 11.9164 67.3269 12.1706 67.2338 12.5143L66.32 15.897C66.2322 16.2215 65.9585 16.4617 65.6253 16.506ZM68.1608 9.05825C67.9988 9.66628 68.5064 10.2438 69.1305 10.1608L72.363 9.73041C72.9828 9.64787 73.3227 8.96494 73.015 8.42074L70.8962 4.6743C70.5069 3.98599 69.4784 4.11738 69.2744 4.88149L68.1608 9.05825Z" fill="black" stroke="black" stroke-width="1.5"/>
<path d="M95.8291 17.0276C94.4418 16.6952 93.3599 16.2372 92.5825 15.6533C91.8083 15.055 91.2799 14.3625 90.9965 13.5759C90.8239 13.0728 90.7321 12.5513 90.7219 12.0114C90.7122 11.517 91.1951 11.1921 91.6763 11.3073C92.1045 11.4099 92.3631 11.8288 92.3967 12.2677C92.4263 12.6606 92.5366 13.0209 92.7277 13.3485C93.0425 13.8673 93.509 14.3079 94.1279 14.6703C94.7609 15.036 95.4809 15.3156 96.2878 15.5089C97.4765 15.7937 98.4657 15.809 99.2554 15.5547C100.048 15.2859 100.541 14.731 100.733 13.8901C100.848 13.3826 100.764 12.9343 100.48 12.545C100.213 12.1447 99.8129 11.7734 99.2788 11.4315C98.7588 11.0928 98.1775 10.7623 97.5348 10.4401C96.8947 10.1033 96.2498 9.75759 95.5992 9.40297C94.9631 9.05171 94.3879 8.66156 93.8737 8.23252C93.3735 7.80692 92.9983 7.32695 92.7467 6.79273C92.5132 6.24738 92.4775 5.61945 92.6395 4.90902C92.9078 3.7346 93.5651 2.88279 94.6113 2.3536C95.672 1.8278 97.0797 1.77516 98.8348 2.19567C100.08 2.49409 101.062 2.93569 101.779 3.52046C102.5 4.09073 102.987 4.73507 103.241 5.45349C103.397 5.87312 103.487 6.29501 103.511 6.7191C103.538 7.21748 103.046 7.54006 102.561 7.42379C102.14 7.3228 101.876 6.91897 101.802 6.49209C101.721 6.02801 101.513 5.58595 101.18 5.16596C100.673 4.50929 99.7754 4.02665 98.4874 3.71806C97.6946 3.52815 97.0324 3.45359 96.5005 3.49439C95.9686 3.53519 95.5387 3.65385 95.2103 3.8504C94.8991 4.03584 94.6625 4.25444 94.5005 4.50616C94.3526 4.76133 94.2506 5.01213 94.1946 5.25861C94.0851 5.73708 94.1654 6.16921 94.4356 6.55508C94.7234 6.92987 95.1273 7.28656 95.6468 7.6252C96.184 7.95272 96.7813 8.27931 97.4385 8.60497C98.0958 8.93063 98.7407 9.27633 99.3737 9.64207C100.024 9.99674 100.598 10.3941 101.094 10.8343C101.609 11.2633 101.982 11.7505 102.216 12.2958C102.464 12.8446 102.506 13.4814 102.34 14.2064C102.035 15.5403 101.305 16.451 100.148 16.9386C98.9954 17.4116 97.5555 17.4413 95.8291 17.0276Z" fill="black" stroke="black" stroke-width="1.5"/>
<path d="M117.716 26.789C116.818 26.1555 116.105 25.4176 115.578 24.5751C115.05 23.7326 114.71 22.8331 114.559 21.8767C114.42 20.9287 114.458 19.9793 114.674 19.0285C114.897 18.0655 115.298 17.1548 115.875 16.2964C116.461 15.4257 117.148 14.7177 117.939 14.1723C118.729 13.627 119.581 13.252 120.496 13.0472C121.422 12.8509 122.363 12.8552 123.32 13.06C124.276 13.2648 125.204 13.684 126.102 14.3174C126.999 14.9509 127.712 15.6888 128.24 16.5313C128.768 17.3738 129.101 18.2691 129.24 19.2171C129.392 20.1735 129.36 21.1271 129.144 22.0779C128.928 23.0286 128.528 23.9393 127.942 24.81C127.365 25.6685 126.677 26.3765 125.879 26.9341C125.088 27.4794 124.23 27.8502 123.304 28.0465C122.39 28.2513 121.454 28.2512 120.498 28.0464C119.541 27.8416 118.614 27.4224 117.716 26.789ZM118.619 25.4462C119.588 26.1303 120.565 26.5027 121.548 26.5634C122.551 26.6202 123.485 26.4117 124.351 25.9377C125.237 25.4599 125.985 24.7673 126.595 23.8598C127.214 22.9401 127.579 21.9772 127.691 20.9712C127.814 19.9735 127.667 19.011 127.249 18.0834C126.852 17.1521 126.168 16.3444 125.198 15.6602C124.241 14.9845 123.261 14.6183 122.257 14.5614C121.262 14.4923 120.326 14.6905 119.448 15.156C118.582 15.63 117.84 16.3268 117.222 17.2466C116.612 18.154 116.241 19.1127 116.109 20.1226C115.997 21.1287 116.146 22.1016 116.556 23.0414C116.973 23.9689 117.661 24.7705 118.619 25.4462Z" fill="black" stroke="black" stroke-width="1.5"/>
<path d="M133.344 41.411C133.075 41.0143 133.171 40.4747 133.561 40.1959L144.009 32.737C144.389 32.4661 144.917 32.5603 145.179 32.9459C145.433 33.3192 145.342 33.8271 144.975 34.0895L135.784 40.6507C135.394 40.9295 135.298 41.4691 135.567 41.8658L139.148 47.1278C139.389 47.4831 139.303 47.9669 138.953 48.2167C138.592 48.4745 138.089 48.3849 137.839 48.0177L133.344 41.411Z" fill="black" stroke="black" stroke-width="1.5"/>
<path d="M143.436 60.1684C143.306 59.7027 143.575 59.2194 144.039 59.0839L156.222 55.517C156.694 55.3784 157.188 55.6529 157.321 56.127L159.79 64.9765C159.905 65.391 159.666 65.8214 159.253 65.9423C158.833 66.0655 158.393 65.8209 158.275 65.399L156.26 58.1795C156.128 57.7054 155.635 57.4313 155.162 57.5695L152.203 58.4359C151.739 58.5714 151.471 59.0548 151.6 59.5204L153.359 65.8253C153.477 66.246 153.235 66.6821 152.816 66.8048C152.389 66.9297 151.943 66.6821 151.824 66.2539L150.076 59.9901C149.944 59.516 149.45 59.2419 148.978 59.3801L145.997 60.2527C145.534 60.3882 145.265 60.8716 145.395 61.3372L147.421 68.5978C147.536 69.0122 147.297 69.4426 146.884 69.5635C146.464 69.6867 146.024 69.4421 145.906 69.0202L143.436 60.1684Z" fill="black" stroke="black" stroke-width="1.5"/>
</svg>
